<svg width="139" height="48" viewBox="0 0 139 48" fill="none" xmlns="http://www.w3.org/2000/svg">
<g clip-path="url(#clip0_508_1801)">
<path d="M127.931 3.39292e-05H11.0753C10.6494 3.39292e-05 10.2285 3.39292e-05 9.80372 0.00243392C9.4481 0.00483391 9.09532 0.0118059 8.73628 0.0176739C7.95629 0.027156 7.17814 0.0980451 6.40858 0.229725C5.6401 0.364272 4.8957 0.617931 4.20055 0.982123C3.50624 1.3494 2.87184 1.82663 2.32035 2.39651C1.76596 2.96479 1.30384 3.62164 0.951745 4.34181C0.598681 5.06055 0.353866 5.83074 0.225754 6.62579C0.0964243 7.41983 0.0268307 8.22303 0.017598 9.02818C0.00681851 9.3961 0.00568015 9.76524 0 10.1332V37.8702C0.00568015 38.2428 0.00681851 38.6038 0.017598 38.9765C0.0268336 39.7816 0.0964271 40.5848 0.225754 41.3788C0.353512 42.1743 0.598342 42.9449 0.951745 43.6639C1.30368 44.3818 1.76587 45.036 2.32035 45.6011C2.86975 46.1735 3.50456 46.6511 4.20055 47.0155C4.8957 47.3807 5.64002 47.6359 6.40858 47.7725C7.17827 47.9031 7.95634 47.974 8.73628 47.9846C9.09532 47.9928 9.4481 47.9975 9.80372 47.9975C10.2285 47.9999 10.6494 47.9999 11.0753 47.9999H127.931C128.348 47.9999 128.773 47.9999 129.19 47.9975C129.544 47.9975 129.907 47.9928 130.261 47.9846C131.039 47.9746 131.816 47.9037 132.584 47.7725C133.355 47.6349 134.102 47.3798 134.801 47.0155C135.496 46.6508 136.13 46.1733 136.679 45.6011C137.232 45.0338 137.695 44.38 138.052 43.6639C138.402 42.9444 138.645 42.1738 138.771 41.3788C138.9 40.5847 138.972 39.7817 138.986 38.9765C138.991 38.6038 138.991 38.2428 138.991 37.8702C139 37.4343 139 37.0007 139 36.5577V11.4434C139 11.0039 139 10.568 138.991 10.1332C138.991 9.76524 138.991 9.3961 138.986 9.02813C138.972 8.22291 138.9 7.41989 138.771 6.62574C138.645 5.83115 138.402 5.06102 138.052 4.34176C137.335 2.89826 136.198 1.72326 134.801 0.982015C134.102 0.618713 133.355 0.365121 132.584 0.229617C131.816 0.097357 131.039 0.0264432 130.261 0.0175059C129.907 0.0116499 129.544 0.00461791 129.19 0.00227792C128.773 -0.00012207 128.348 -0.00012207 127.931 -0.00012207V3.39292e-05Z" fill="#A6A6A6"/>
<path d="M9.69144 47.1104C9.33683 47.1104 8.99079 47.1057 8.63897 47.0975C7.91014 47.0876 7.18301 47.0218 6.46355 46.9004C5.79268 46.7805 5.1428 46.5573 4.53533 46.2384C3.93343 45.922 3.38444 45.5073 2.90941 45.0099C2.4275 44.5185 2.02629 43.9484 1.72168 43.3225C1.4137 42.6924 1.20057 42.0171 1.0897 41.32C0.969965 40.5709 0.905184 39.8135 0.895915 39.0543C0.888536 38.7994 0.878876 37.9509 0.878876 37.9509V10.0371C0.878876 10.0371 0.889164 9.20165 0.895973 8.95619C0.904848 8.19817 0.969252 7.44194 1.08863 6.69406C1.1997 5.99504 1.413 5.31776 1.72114 4.68564C2.02464 4.06009 2.42362 3.48964 2.90262 2.99641C3.38109 2.4985 3.93183 2.08159 4.53476 1.7609C5.14083 1.44296 5.78949 1.22139 6.45899 1.10362C7.18082 0.981054 7.91047 0.914788 8.64183 0.905379L9.69201 0.890625H129.301L130.363 0.905971C131.088 0.914912 131.811 0.980587 132.526 1.10244C133.202 1.22169 133.858 1.4448 134.471 1.76444C135.679 2.41073 136.662 3.43321 137.282 4.68859C137.585 5.31634 137.795 5.9881 137.905 6.68108C138.025 7.4351 138.093 8.19727 138.107 8.96151C138.11 9.30372 138.11 9.6713 138.11 10.0371C138.119 10.4903 138.119 10.9216 138.119 11.3564V36.6458C138.119 37.0848 138.119 37.5131 138.11 37.945C138.11 38.338 138.11 38.6979 138.106 39.0684C138.092 39.819 138.026 40.5676 137.907 41.3081C137.798 42.0103 137.586 42.6909 137.278 43.3261C136.971 43.9453 136.573 44.5104 136.096 45.0005C135.621 45.5005 135.071 45.9177 134.468 46.2361C133.856 46.5575 133.202 46.7814 132.526 46.9004C131.807 47.0224 131.08 47.0883 130.351 47.0975C130.01 47.1057 129.653 47.1104 129.306 47.1104L128.045 47.1129L9.69144 47.1104Z" fill="#212225"/>
<path d="M28.7704 23.9096C28.7829 22.9266 29.0404 21.9627 29.519 21.1077C29.9976 20.2527 30.6817 19.5343 31.5077 19.0194C30.983 18.2596 30.2907 17.6342 29.486 17.1931C28.6812 16.752 27.786 16.5072 26.8716 16.4782C24.9211 16.2706 23.0301 17.6616 22.0361 17.6616C21.0229 17.6616 19.4925 16.4988 17.8445 16.5331C16.7785 16.5681 15.7397 16.8824 14.8291 17.4454C13.9186 18.0084 13.1674 18.801 12.6488 19.746C10.4023 23.6897 12.078 29.4856 14.23 32.6733C15.3066 34.2343 16.565 35.978 18.2115 35.9161C19.8226 35.8484 20.4244 34.8744 22.3692 34.8744C24.296 34.8744 24.8606 35.9161 26.5405 35.8768C28.2694 35.8484 29.3586 34.3089 30.3975 32.7332C31.1711 31.6209 31.7664 30.3916 32.1613 29.0909C31.1569 28.6601 30.2997 27.9391 29.6967 27.0177C29.0937 26.0964 28.7715 25.0154 28.7704 23.9096Z" fill="white"/>
<path d="M25.5954 14.3807C26.538 13.2333 27.0024 11.7585 26.89 10.2695C25.4498 10.4229 24.1195 11.1208 23.1641 12.2242C22.697 12.7632 22.3392 13.3903 22.1113 14.0696C21.8833 14.7489 21.7896 15.4671 21.8356 16.1832C22.5559 16.1907 23.2686 16.0324 23.9198 15.7202C24.5711 15.4079 25.144 14.95 25.5954 14.3807Z" fill="white"/>
<path d="M49.1358 31.9616H43.6375L42.3171 35.9147H39.9883L45.1961 21.2891H47.6157L52.8236 35.9147H50.455L49.1358 31.9616ZM44.207 30.1374H48.5652L46.4167 23.7217H46.3566L44.207 30.1374Z" fill="white"/>
<path d="M64.0705 30.5864C64.0705 33.9 62.3213 36.029 59.6816 36.029C59.013 36.0645 58.3479 35.9083 57.7627 35.5783C57.1776 35.2484 56.6958 34.758 56.3727 34.1634H56.3228V39.445H54.1641V25.2542H56.2536V27.0277H56.2933C56.6313 26.4359 57.1211 25.9481 57.7108 25.6162C58.3004 25.2842 58.9678 25.1205 59.6419 25.1426C62.311 25.1426 64.0705 27.2819 64.0705 30.5864ZM61.8517 30.5864C61.8517 28.4275 60.7513 27.0082 59.0725 27.0082C57.4231 27.0082 56.3137 28.4574 56.3137 30.5864C56.3137 32.7349 57.4231 34.1738 59.0725 34.1738C60.7513 34.1738 61.8517 32.7648 61.8517 30.5864Z" fill="white"/>
<path d="M75.6486 30.5864C75.6486 33.9 73.8994 36.029 71.2598 36.029C70.5911 36.0644 69.9261 35.9083 69.3409 35.5783C68.7557 35.2484 68.2739 34.758 67.9508 34.1634H67.9009V39.445H65.7422V25.2542H67.8317V27.0277H67.8714C68.2093 26.4359 68.6992 25.9481 69.2889 25.6162C69.8785 25.2842 70.5459 25.1205 71.22 25.1426C73.8892 25.1426 75.6486 27.2819 75.6486 30.5864ZM73.4298 30.5864C73.4298 28.4275 72.3294 27.0082 70.6506 27.0082C69.0012 27.0082 67.8918 28.4574 67.8918 30.5864C67.8918 32.7349 69.0012 34.1738 70.6506 34.1738C72.3295 34.1738 73.4298 32.7648 73.4298 30.5864H73.4298Z" fill="white"/>
<path d="M83.2918 31.8413C83.4518 33.2917 84.8414 34.244 86.7403 34.244C88.5598 34.244 89.8688 33.2916 89.8688 31.9839C89.8688 30.8487 89.0793 30.1689 87.2099 29.7031L85.3405 29.2465C82.6917 28.5978 81.4621 27.3418 81.4621 25.3037C81.4621 22.7802 83.631 21.0469 86.7108 21.0469C89.7588 21.0469 91.8483 22.7802 91.9186 25.3037H89.7395C89.609 23.8441 88.4191 22.9631 86.6801 22.9631C84.9411 22.9631 83.7512 23.8545 83.7512 25.1519C83.7512 26.1859 84.5112 26.7943 86.3704 27.2601L87.9597 27.6557C90.9192 28.3654 92.1489 29.5708 92.1489 31.7101C92.1489 34.4464 89.9992 36.1601 86.5803 36.1601C83.3814 36.1601 81.2216 34.4866 81.082 31.8412L83.2918 31.8413Z" fill="white"/>
<path d="M96.8113 22.7305V25.254H98.8112V26.9873H96.8113V32.8658C96.8113 33.779 97.2117 34.2046 98.0908 34.2046C98.3283 34.2004 98.5653 34.1835 98.801 34.154V35.8769C98.4057 35.9518 98.004 35.9857 97.6019 35.9781C95.4728 35.9781 94.6424 35.1673 94.6424 33.0992V26.9873H93.1133V25.254H94.6424V22.7305H96.8113Z" fill="white"/>
<path d="M99.9688 30.5883C99.9688 27.2333 101.918 25.125 104.957 25.125C108.006 25.125 109.945 27.2332 109.945 30.5883C109.945 33.9526 108.016 36.0516 104.957 36.0516C101.898 36.0516 99.9688 33.9526 99.9688 30.5883ZM107.746 30.5883C107.746 28.2868 106.706 26.9285 104.957 26.9285C103.207 26.9285 102.168 28.2972 102.168 30.5883C102.168 32.899 103.207 34.247 104.957 34.247C106.706 34.247 107.746 32.899 107.746 30.5883H107.746Z" fill="white"/>
<path d="M111.73 25.2541H113.789V27.069H113.839C113.979 26.5022 114.306 26.0012 114.767 25.6504C115.227 25.2995 115.793 25.1202 116.369 25.1425C116.618 25.1416 116.866 25.169 117.109 25.2241V27.2715C116.794 27.1741 116.467 27.1295 116.139 27.1392C115.825 27.1263 115.512 27.1824 115.222 27.3035C114.932 27.4247 114.671 27.6081 114.457 27.8412C114.244 28.0743 114.082 28.3515 113.984 28.6538C113.886 28.9561 113.854 29.2763 113.889 29.5925V35.9173H111.73L111.73 25.2541Z" fill="white"/>
<path d="M127.061 32.7875C126.77 34.7232 124.911 36.0516 122.533 36.0516C119.473 36.0516 117.574 33.9733 117.574 30.6389C117.574 27.2942 119.483 25.125 122.442 25.125C125.351 25.125 127.181 27.1516 127.181 30.3847V31.1347H119.753V31.2669C119.719 31.6594 119.768 32.0547 119.895 32.4267C120.023 32.7987 120.228 33.1388 120.496 33.4245C120.763 33.7101 121.088 33.9348 121.447 34.0836C121.807 34.2323 122.194 34.3018 122.582 34.2873C123.093 34.3357 123.604 34.2159 124.042 33.9457C124.48 33.6755 124.82 33.2693 125.011 32.7874L127.061 32.7875ZM119.764 29.6049H125.021C125.041 29.2521 124.988 28.899 124.866 28.5678C124.745 28.2366 124.557 27.9344 124.315 27.6803C124.072 27.4262 123.781 27.2255 123.459 27.091C123.136 26.9565 122.79 26.891 122.442 26.8986C122.09 26.8964 121.742 26.9649 121.416 27.1001C121.091 27.2352 120.795 27.4343 120.547 27.6859C120.298 27.9376 120.1 28.2367 119.966 28.566C119.831 28.8954 119.763 29.2485 119.764 29.6049V29.6049Z" fill="white"/>
<path d="M42.6728 13.2538H43.5996C43.7591 13.274 43.921 13.2604 44.0751 13.2139C44.2292 13.1675 44.3722 13.0891 44.4949 12.9839C44.6177 12.8787 44.7176 12.7488 44.7885 12.6024C44.8593 12.4561 44.8994 12.2964 44.9063 12.1336C44.9063 11.4854 44.4254 11.0668 43.6098 11.0668C43.4463 11.0436 43.2799 11.0539 43.1205 11.097C42.961 11.1401 42.8117 11.2152 42.6813 11.3178C42.5509 11.4204 42.4421 11.5485 42.3614 11.6944C42.2806 11.8403 42.2295 12.0012 42.2111 12.1675H41.1935C41.2111 11.8656 41.2897 11.5706 41.4245 11.3009C41.5593 11.0312 41.7474 10.7925 41.9772 10.5997C42.2069 10.4069 42.4734 10.2641 42.7599 10.1802C43.0464 10.0963 43.3469 10.0732 43.6426 10.1121C45.0073 10.1121 45.9681 10.8868 45.9681 12.0019C45.9713 12.3754 45.8481 12.7388 45.6189 13.0313C45.3897 13.3239 45.0686 13.5278 44.709 13.6092V13.692C45.1353 13.7112 45.5367 13.9007 45.8256 14.2192C46.1145 14.5376 46.2673 14.9591 46.2506 15.3914C46.219 15.7022 46.1266 16.0035 45.9787 16.2776C45.8308 16.5518 45.6305 16.7932 45.3894 16.9878C45.1483 17.1824 44.8713 17.3262 44.5747 17.4108C44.2781 17.4955 43.9678 17.5192 43.662 17.4807C43.3555 17.5231 43.0438 17.5024 42.7454 17.42C42.447 17.3376 42.168 17.1952 41.9251 17.0011C41.6821 16.8071 41.4802 16.5654 41.3313 16.2905C41.1825 16.0156 41.0897 15.7132 41.0586 15.4012H42.092C42.1544 16.0735 42.7635 16.5071 43.662 16.5071C44.5604 16.5071 45.1468 16.02 45.1468 15.3334C45.1468 14.637 44.5944 14.2079 43.6291 14.2079H42.6728V13.2538Z" fill="white"/>
<path d="M47.4219 15.8083C47.4219 14.8537 48.124 14.3033 49.3673 14.2251L50.7841 14.1423V13.6845C50.7841 13.1244 50.42 12.8081 49.7133 12.8081C49.137 12.8081 48.7389 13.0226 48.6232 13.3976H47.6238C47.7293 12.4866 48.5755 11.9023 49.7621 11.9023C51.0734 11.9023 51.813 12.5643 51.813 13.6845V17.3082H50.8182V16.5628H50.7365C50.5707 16.8302 50.3379 17.0481 50.0619 17.1944C49.7859 17.3407 49.4765 17.4101 49.1654 17.3955C48.9458 17.4187 48.7239 17.3949 48.5139 17.3258C48.3039 17.2567 48.1106 17.1437 47.9463 16.9942C47.7821 16.8446 47.6505 16.6618 47.5602 16.4576C47.4699 16.2533 47.4227 16.0322 47.4219 15.8083ZM50.7841 15.3552V14.9118L49.5068 14.9946C48.7865 15.0435 48.4598 15.2919 48.4598 15.7594C48.4598 16.2368 48.8681 16.5145 49.4297 16.5145C49.5942 16.5314 49.7604 16.5146 49.9184 16.465C50.0764 16.4154 50.2229 16.3341 50.3493 16.226C50.4757 16.1178 50.5793 15.985 50.654 15.8354C50.7287 15.6858 50.7729 15.5225 50.7841 15.3552Z" fill="white"/>
<path d="M54.5557 12.8888V17.3113H53.5234V12.0078H56.9674V12.8888L54.5557 12.8888Z" fill="white"/>
<path d="M63.2205 14.6559C63.2205 16.3409 62.3799 17.3973 61.0595 17.3973C60.7354 17.4198 60.4117 17.3479 60.1265 17.1901C59.8414 17.0322 59.6066 16.7951 59.4499 16.5065H59.3682V19.0732H58.3359V12.0065H59.3296V12.883H59.4068C59.5663 12.5843 59.8041 12.3362 60.094 12.166C60.3839 11.9958 60.7145 11.9102 61.0493 11.9185C62.3799 11.9185 63.2205 12.9703 63.2205 14.6559ZM62.1587 14.6559C62.1587 13.5356 61.6358 12.8588 60.7612 12.8588C59.8923 12.8588 59.3489 13.55 59.3489 14.6605C59.3489 15.7658 59.8923 16.4577 60.7567 16.4577C61.6358 16.4576 62.1587 15.7808 62.1587 14.6559Z" fill="white"/>
<path d="M64.5996 19.2108V18.3096C64.7113 18.324 64.8239 18.3305 64.9365 18.3292C65.1564 18.3457 65.3746 18.2793 65.5492 18.1427C65.7238 18.0061 65.8425 17.8089 65.8825 17.589L65.9596 17.3308L64.0664 12.0078H65.1906L66.5019 16.2203H66.5836L67.8904 12.0078H68.985L67.0351 17.5304C66.5881 18.8209 66.0936 19.2349 65.0273 19.2349C64.941 19.2349 64.696 19.2252 64.5996 19.2108Z" fill="white"/>
<path d="M69.7891 15.8088H70.8168C70.9178 16.2764 71.35 16.5202 71.9546 16.5202C72.642 16.5202 73.064 16.2131 73.064 15.7358C73.064 15.2245 72.6851 14.9807 71.9546 14.9807H71.1718V14.1675H71.9409C72.5648 14.1675 72.8825 13.9243 72.8825 13.4809C72.8825 13.0916 72.5751 12.7942 71.9409 12.7942C71.3636 12.7942 70.9416 13.0427 70.8746 13.4613H69.8798C69.9542 12.9803 70.2118 12.548 70.5972 12.2575C70.9827 11.967 71.4652 11.8416 71.9409 11.908C73.1842 11.908 73.8955 12.478 73.8955 13.3739C73.9013 13.6234 73.8224 13.8674 73.6721 14.065C73.5218 14.2627 73.3091 14.402 73.0696 14.4597V14.5425C73.3547 14.5798 73.6164 14.7219 73.805 14.9419C73.9936 15.1618 74.0961 15.4444 74.0928 15.7358C74.0928 16.744 73.2466 17.411 71.9546 17.411C70.8123 17.411 69.8844 16.8802 69.7891 15.8088Z" fill="white"/>
<path d="M75.5781 17.3113V12.0078H76.6013V15.6556H76.683L79.0935 12.0078H80.1167V17.3113H79.0935V13.644H79.0164L76.6013 17.3113L75.5781 17.3113Z" fill="white"/>
<path d="M85.7495 12.8888H84.1024V17.3112H83.069V12.8888H81.4219V12.0078H85.7495V12.8888Z" fill="white"/>
<path d="M91.3155 15.8763C91.1748 16.361 90.8707 16.7801 90.4562 17.0606C90.0417 17.341 89.5433 17.4649 89.0479 17.4106C88.7033 17.4198 88.3608 17.3529 88.0443 17.2145C87.7277 17.0761 87.4447 16.8695 87.2148 16.609C86.9849 16.3486 86.8137 16.0405 86.713 15.7062C86.6123 15.3719 86.5846 15.0194 86.6317 14.6732C86.5858 14.3259 86.614 13.9726 86.7145 13.6374C86.815 13.3021 86.9853 12.9926 87.214 12.7299C87.4427 12.4671 87.7243 12.2573 88.0399 12.1145C88.3556 11.9718 88.6978 11.8994 89.0433 11.9024C90.4987 11.9024 91.3778 12.9106 91.3778 14.576V14.9412H87.6844V14.9999C87.668 15.1945 87.692 15.3905 87.7548 15.5752C87.8176 15.7599 87.9178 15.9293 88.049 16.0723C88.1802 16.2154 88.3395 16.3291 88.5166 16.4061C88.6937 16.483 88.8847 16.5216 89.0774 16.5192C89.3241 16.5491 89.5741 16.504 89.7955 16.3895C90.0168 16.275 90.1996 16.0963 90.3206 15.8763L91.3155 15.8763ZM87.6843 14.1671H90.3251C90.3382 13.9892 90.3144 13.8105 90.2553 13.6425C90.1962 13.4745 90.1031 13.3208 89.9819 13.1915C89.8608 13.0621 89.7143 12.9598 89.5519 12.8912C89.3894 12.8227 89.2147 12.7893 89.0388 12.7933C88.8602 12.7908 88.6829 12.8247 88.5175 12.8928C88.352 12.961 88.2017 13.0621 88.0754 13.1902C87.9492 13.3183 87.8495 13.4707 87.7824 13.6385C87.7152 13.8063 87.6819 13.9861 87.6844 14.1671H87.6843Z" fill="white"/>
<path d="M95.6914 12.0078H98.0497C99.0729 12.0078 99.673 12.5334 99.673 13.3564C99.6746 13.6175 99.5877 13.8712 99.4268 14.0752C99.266 14.2791 99.0409 14.4208 98.7893 14.4766V14.5594C99.0948 14.579 99.3812 14.7168 99.5894 14.9443C99.7975 15.1719 99.9115 15.4718 99.9078 15.7821C99.9078 16.7074 99.2215 17.3112 98.0736 17.3112H95.6914V12.0078ZM96.7146 12.8112V14.1845H97.7378C98.3617 14.1845 98.66 13.9412 98.66 13.4927C98.66 13.0792 98.4003 12.8112 97.8524 12.8112L96.7146 12.8112ZM96.7146 14.954V16.5079H97.9386C98.5489 16.5079 98.8756 16.2347 98.8756 15.7332C98.8756 15.2024 98.5058 14.954 97.8093 14.954L96.7146 14.954Z" fill="white"/>
</g>
<defs>
<clipPath id="clip0_508_1801">
<rect width="139" height="48" fill="white"/>
</clipPath>
</defs>
</svg>
