<svg width="158" height="48" viewBox="0 0 158 48" fill="none" xmlns="http://www.w3.org/2000/svg">
<path d="M152.148 48H5.85185C2.63333 48 0 45.3 0 42V6C0 2.7 2.63333 -3.8147e-06 5.85185 -3.8147e-06H152.148C155.367 -3.8147e-06 158 2.7 158 6V42C158 45.3 155.367 48 152.148 48Z" fill="#212225"/>
<path d="M152.148 0H5.85185C2.63333 0 0 2.7 0 6V42C0 45.3 2.63333 48 5.85185 48H152.148C155.367 48 158 45.3 158 42V6C158 2.7 155.367 0 152.148 0ZM152.148 0.960003C154.859 0.960003 157.064 3.22128 157.064 6V42C157.064 44.7792 154.859 47.0405 152.148 47.0405H5.85185C3.14174 47.0405 0.936296 44.7792 0.936296 42V6C0.936296 3.22128 3.14174 0.960003 5.85185 0.960003H152.148Z" fill="#A6A6A6"/>
<path d="M12.3005 38.9805L12.2135 38.8962C11.8729 38.5313 11.6719 37.9646 11.6719 37.2309V37.4036V11.192C11.6719 11.1897 11.6719 11.1879 11.6719 11.186C11.6719 11.1882 11.6719 11.1901 11.6719 11.1925V11.3657C11.6719 10.5711 11.9063 9.97259 12.2991 9.61372L26.7997 24.2976L12.3005 38.9805ZM11.6719 11.1846C11.6719 11.1193 11.6736 11.0558 11.6769 10.9934C11.6736 11.0554 11.6719 11.1193 11.6719 11.1846ZM11.6769 10.9905C11.6769 10.9897 11.6769 10.9888 11.6773 10.9878C11.6769 10.9888 11.6769 10.9897 11.6769 10.9905ZM11.6773 10.9822C11.6773 10.9818 11.6773 10.9813 11.6773 10.9808C11.6773 10.9813 11.6773 10.9818 11.6773 10.9822Z" fill="url(#paint0_linear_508_1735)"/>
<path d="M31.6336 29.3672L31.7438 29.3038L37.4703 26.0088C38.0163 25.6945 38.3802 25.3135 38.5617 24.9103C38.3807 25.3135 38.0167 25.695 37.4703 26.0093L31.7438 29.3043L31.6336 29.3672ZM31.635 29.1936L26.8008 24.2973L31.6345 19.4019L37.4703 22.7593C38.2114 23.1857 38.6275 23.7353 38.697 24.2968C38.697 24.2973 38.697 24.2983 38.697 24.2991C38.6275 24.8593 38.2114 25.4094 37.4703 25.8357L31.635 29.1936Z" fill="url(#paint1_linear_508_1735)"/>
<path d="M13.332 39.5391C12.9269 39.5391 12.5735 39.4057 12.2979 39.1539L12.2983 39.1534C12.574 39.4053 12.9279 39.5391 13.3329 39.5391C13.3681 39.5391 13.4038 39.5381 13.4399 39.5363C13.4033 39.5381 13.3671 39.5391 13.332 39.5391ZM13.3325 39.3654C12.9274 39.3659 12.574 39.2321 12.2983 38.9802V38.9799L26.7976 24.297L31.6318 29.1932L14.6436 38.9678C14.1736 39.2377 13.7283 39.3654 13.3325 39.3654ZM12.2942 39.1507C12.2686 39.1271 12.2434 39.1021 12.2188 39.0761L12.2942 39.1507Z" fill="url(#paint2_linear_508_1735)"/>
<path d="M26.7975 24.3008L12.2969 9.61693C12.5725 9.36555 12.9255 9.23222 13.3301 9.23222C13.727 9.23222 14.1726 9.36046 14.6436 9.6308L31.6313 19.4054L26.7975 24.3008ZM31.7406 19.2948L14.6436 9.45776C14.1726 9.1873 13.727 9.05906 13.3301 9.05906C13.3282 9.05906 13.3269 9.05906 13.325 9.05906C13.3274 9.05906 13.3291 9.05906 13.3319 9.05906C13.7279 9.05906 14.1731 9.18683 14.6436 9.45729L31.7406 19.2948Z" fill="url(#paint3_linear_508_1735)"/>
<path d="M13.4433 39.5391C13.8113 39.5177 14.2187 39.3895 14.647 39.1437L31.6338 29.3696L14.647 39.1437C14.219 39.39 13.8113 39.5177 13.4433 39.5391ZM12.3013 39.1566L12.2976 39.1534C12.2989 39.1544 12.3003 39.1557 12.3013 39.1566ZM12.2222 39.0789L12.2148 39.0715V39.071C12.2176 39.0738 12.2198 39.0765 12.2222 39.0789Z" fill="#212225"/>
<path d="M31.6328 29.3672L31.7431 29.3038L31.6328 29.3672Z" fill="url(#paint4_linear_508_1735)"/>
<path d="M13.3363 39.5391C12.9313 39.5391 12.5774 39.4053 12.3017 39.1534L12.3013 39.1539C12.3003 39.1529 12.2989 39.1516 12.2976 39.1507L12.2222 39.0761C12.2198 39.0738 12.2176 39.071 12.2148 39.0683L12.3017 38.9802C12.5774 39.2321 12.9308 39.3659 13.3359 39.3654C13.7317 39.3654 14.177 39.2377 14.647 38.9678L31.6352 29.1932L31.744 29.3034L31.6338 29.3669L14.647 39.141C14.2187 39.3868 13.8113 39.515 13.4433 39.5363C13.4072 39.5381 13.3715 39.5391 13.3363 39.5391Z" fill="url(#paint5_linear_508_1735)"/>
<path d="M12.2135 39.0703C11.8729 38.7054 11.6719 38.1388 11.6719 37.405V37.4045C11.6719 38.1388 11.8729 38.7049 12.2135 39.0698V39.0703Z" fill="#212225"/>
<path d="M12.2135 39.0703C11.8729 38.7054 11.6719 38.1392 11.6719 37.405V37.2323C11.6719 37.9661 11.8729 38.5327 12.2135 38.8976L12.3005 38.9819L12.2135 39.0703Z" fill="url(#paint6_linear_508_1735)"/>
<path d="M12.2148 39.0703L12.3017 38.9819V38.9823L12.2148 39.0703Z" fill="url(#paint7_linear_508_1735)"/>
<path d="M38.5586 24.9102C38.6486 24.7101 38.6939 24.5046 38.6939 24.299C38.6939 24.2986 38.6939 24.2981 38.6939 24.2981C38.6939 24.5041 38.6486 24.7096 38.5586 24.9102Z" fill="#212225"/>
<path d="M31.7417 29.3047L31.6328 29.1945L37.4682 25.8366C38.2092 25.4103 38.6253 24.8602 38.6948 24.3C38.6948 24.5056 38.6495 24.7111 38.5595 24.9112C38.378 25.3144 38.0141 25.6954 37.4682 26.0098L31.7417 29.3047Z" fill="url(#paint8_linear_508_1735)"/>
<path d="M38.6958 24.3008V24.3003C38.6954 23.6803 38.2862 23.0605 37.4692 22.5901L31.7427 19.2952H31.7422L31.7427 19.2948L37.4692 22.5896C38.2871 23.06 38.6968 23.6808 38.6958 24.3008Z" fill="#404040"/>
<path d="M38.6953 24.3008C38.6258 23.7392 38.2097 23.1897 37.4686 22.7632L31.6328 19.4058L31.7417 19.2956H31.7421L37.4686 22.5906C38.2857 23.061 38.6948 23.6808 38.6953 24.3008Z" fill="url(#paint9_linear_508_1735)"/>
<path d="M11.6719 11.1836C11.6719 11.1831 11.6719 11.1826 11.6719 11.1822C11.6719 11.1826 11.6719 11.1831 11.6719 11.1836ZM11.6769 10.991C11.6769 10.9901 11.6769 10.9891 11.6769 10.9882C11.6769 10.9891 11.6769 10.9901 11.6769 10.991ZM11.6773 10.9854C11.6773 10.9835 11.6773 10.9818 11.6773 10.9799C11.6773 10.9818 11.6773 10.9835 11.6773 10.9854ZM11.6773 10.9784C11.745 9.7609 12.3988 9.05761 13.3236 9.05346C12.9226 9.05583 12.5734 9.18917 12.3 9.43865V9.43817L12.2967 9.44149C12.2679 9.4678 12.2406 9.49565 12.2135 9.52433C11.9063 9.85346 11.7125 10.3465 11.6773 10.9784Z" fill="#404040"/>
<path d="M11.6719 11.3633V11.1901C11.6719 11.1878 11.6719 11.1859 11.6719 11.1836C11.6719 11.1831 11.6719 11.1827 11.6719 11.1822C11.6719 11.1169 11.6736 11.053 11.6769 10.991C11.6769 10.9901 11.6769 10.9891 11.6769 10.9882C11.6769 10.9873 11.6769 10.9864 11.6773 10.9854C11.6773 10.9835 11.6773 10.9818 11.6773 10.9799C11.6773 10.9794 11.6773 10.9789 11.6773 10.9785C11.7125 10.3465 11.9063 9.85347 12.2135 9.52435L12.2991 9.61134C11.9063 9.97022 11.6719 10.5687 11.6719 11.3633ZM12.2967 9.4415L12.3 9.43819C12.2991 9.43961 12.2977 9.44056 12.2967 9.4415Z" fill="url(#paint10_linear_508_1735)"/>
<path d="M31.6348 19.4023L14.6471 9.62777C14.1761 9.35743 13.7305 9.22919 13.3336 9.22919C12.929 9.22919 12.576 9.36252 12.3004 9.6139L12.2148 9.52691C12.2419 9.49823 12.2693 9.47037 12.2981 9.44406C12.299 9.44311 12.3004 9.44217 12.3013 9.44122C12.5747 9.19174 12.924 9.0584 13.3249 9.05603C13.3259 9.05603 13.3272 9.05603 13.3286 9.05603C13.3304 9.05603 13.3317 9.05603 13.3336 9.05603C13.7305 9.05603 14.1761 9.18427 14.6471 9.45473L31.7441 19.2918L31.7436 19.2921L31.6348 19.4023Z" fill="url(#paint11_linear_508_1735)"/>
<path d="M125.156 37.0361H127.34V22.2199H125.156V37.0361ZM144.826 27.557L142.323 33.9806H142.248L139.65 27.557H137.297L141.193 36.5352L138.972 41.5292H141.251L147.255 27.557H144.826ZM132.441 35.3533C131.725 35.3533 130.728 34.9912 130.728 34.095C130.728 32.9514 131.971 32.513 133.043 32.513C134.004 32.513 134.454 32.7227 135.038 33.0089C134.869 34.3811 133.702 35.3533 132.441 35.3533ZM132.705 27.2329C131.123 27.2329 129.486 27.9384 128.808 29.5014L130.747 30.3209C131.161 29.5014 131.932 29.2343 132.742 29.2343C133.872 29.2343 135.02 29.9209 135.038 31.1408V31.2931C134.643 31.0643 133.797 30.7214 132.761 30.7214C130.672 30.7214 128.544 31.8838 128.544 34.0569C128.544 36.0394 130.257 37.3167 132.177 37.3167C133.646 37.3167 134.454 36.6495 134.963 35.8681H135.038V37.0116H137.146V31.331C137.146 28.701 135.208 27.2329 132.705 27.2329ZM119.208 29.3606H116.102V24.282H119.208C120.841 24.282 121.768 25.6509 121.768 26.8213C121.768 27.9695 120.841 29.3606 119.208 29.3606ZM119.152 22.2199H113.919V37.0361H116.102V31.4227H119.152C121.572 31.4227 123.951 29.6482 123.951 26.8213C123.951 23.9945 121.572 22.2199 119.152 22.2199ZM90.617 35.356C89.1082 35.356 87.8451 34.0768 87.8451 32.3199C87.8451 30.5445 89.1082 29.2459 90.617 29.2459C92.1065 29.2459 93.2755 30.5445 93.2755 32.3199C93.2755 34.0768 92.1065 35.356 90.617 35.356ZM93.1246 28.3867H93.0491C92.5591 27.7949 91.6159 27.2603 90.4282 27.2603C87.9393 27.2603 85.658 29.475 85.658 32.3199C85.658 35.1459 87.9393 37.3417 90.4282 37.3417C91.6159 37.3417 92.5591 36.8069 93.0491 36.1963H93.1246V36.9218C93.1246 38.8505 92.1065 39.8815 90.4661 39.8815C89.1274 39.8815 88.2978 38.9074 87.958 38.0866L86.0539 38.8885C86.6007 40.225 88.0527 41.8672 90.4661 41.8672C93.0304 41.8672 95.1987 40.3394 95.1987 36.6162V27.5658H93.1246V28.3867ZM96.707 37.0361H98.8942V22.2194H96.707V37.0361ZM102.119 32.1482C102.062 30.2005 103.608 29.2079 104.72 29.2079C105.588 29.2079 106.323 29.6467 106.568 30.2774L102.119 32.1482ZM108.906 30.4681C108.492 29.3412 107.228 27.2603 104.645 27.2603C102.081 27.2603 99.9502 29.3033 99.9502 32.301C99.9502 35.1269 102.062 37.3417 104.89 37.3417C107.172 37.3417 108.492 35.9287 109.039 35.1078L107.342 33.962C106.776 34.8023 106.003 35.356 104.89 35.356C103.778 35.356 102.986 34.8403 102.477 33.8287L109.132 31.0408L108.906 30.4681ZM55.879 28.8069V30.9454H60.932C60.7812 32.1482 60.3853 33.0264 59.7818 33.6375C59.0467 34.3824 57.8965 35.2032 55.879 35.2032C52.7678 35.2032 50.3356 32.6639 50.3356 29.5134C50.3356 26.363 52.7678 23.8232 55.879 23.8232C57.5572 23.8232 58.7824 24.4917 59.6876 25.3509L61.1771 23.8427C59.9139 22.6204 58.2356 21.6848 55.879 21.6848C51.6175 21.6848 48.0352 25.1982 48.0352 29.5134C48.0352 33.8287 51.6175 37.3417 55.879 37.3417C58.1795 37.3417 59.9139 36.5783 61.2713 35.1459C62.6667 33.7329 63.1005 31.7472 63.1005 30.1436C63.1005 29.6467 63.0629 29.1889 62.9871 28.8069H55.879ZM68.8454 35.356C67.3367 35.356 66.0356 34.0958 66.0356 32.301C66.0356 30.487 67.3367 29.2459 68.8454 29.2459C70.3535 29.2459 71.6546 30.487 71.6546 32.301C71.6546 34.0958 70.3535 35.356 68.8454 35.356ZM68.8454 27.2603C66.0922 27.2603 63.8484 29.3796 63.8484 32.301C63.8484 35.2032 66.0922 37.3417 68.8454 37.3417C71.598 37.3417 73.8418 35.2032 73.8418 32.301C73.8418 29.3796 71.598 27.2603 68.8454 27.2603ZM79.7453 35.356C78.2372 35.356 76.9359 34.0958 76.9359 32.301C76.9359 30.487 78.2372 29.2459 79.7453 29.2459C81.2535 29.2459 82.5546 30.487 82.5546 32.301C82.5546 34.0958 81.2535 35.356 79.7453 35.356ZM79.7453 27.2603C76.9922 27.2603 74.7489 29.3796 74.7489 32.301C74.7489 35.2032 76.9922 37.3417 79.7453 37.3417C82.498 37.3417 84.7418 35.2032 84.7418 32.301C84.7418 29.3796 82.498 27.2603 79.7453 27.2603Z" fill="white"/>
<path d="M50.9069 13.2943C50.9205 14.4193 50.6979 15.3267 50.2407 16.0156H53.7906V10.6517H50.9069V13.2943ZM49.2885 18.3984H48.4258V16.0156H49.1124C49.7204 15.485 50.0176 14.5786 50.0053 13.2943V9.77811H54.6936V16.0156H55.4777V18.3984H54.6146V16.8892H49.2885V18.3984Z" fill="white"/>
<path d="M50.9106 13.2969L50.7936 13.2983L50.7945 13.3941C50.794 14.4585 50.5746 15.3085 50.1471 15.9519L50.0246 16.1367H53.9114V10.5358H50.7936V13.2978V13.2983L50.9106 13.2969H51.0276V10.7728H53.6774V15.8997H50.2444V16.0182L50.3415 16.084C50.8018 15.3904 51.0286 14.4904 51.0286 13.3941L51.0276 13.2955L50.9106 13.2969H51.0276H50.9106ZM49.2922 18.401V18.2825H48.5466V16.1367H49.1162H49.1596L49.1925 16.108C49.8252 15.5553 50.1266 14.6344 50.1266 13.3746L50.1261 13.2959V13.2969V9.8992H54.5803V16.1367H55.3645V18.2825H54.7354V16.8918V16.7733H49.1752V18.401H49.2922V18.2825V18.401H49.4093V17.0103H54.5013V18.401V18.5195H55.4815H55.5985V15.8997H54.8144V9.66217H49.892V13.2974V13.2978L49.8925 13.3746C49.892 14.6011 49.5985 15.4423 49.0398 15.9279L49.1162 16.0182V15.8997H48.4295H48.3125V18.5195H49.2922H49.4093V18.401H49.2922Z" fill="white"/>
<path d="M58.0366 15.3737C58.5568 15.9066 59.1923 16.1728 59.9444 16.1728C60.6964 16.1728 61.3328 15.9066 61.8517 15.3737C62.372 14.8409 62.6325 14.1598 62.6325 13.3325C62.6325 12.5052 62.372 11.8241 61.8517 11.2913C61.3328 10.7584 60.6964 10.4922 59.9444 10.4922C59.1923 10.4922 58.5568 10.7584 58.0366 11.2913C57.5177 11.8241 57.2571 12.5052 57.2571 13.3325C57.2571 14.1598 57.5177 14.8409 58.0366 15.3737ZM62.5192 15.9691C61.8288 16.688 60.9707 17.0469 59.9444 17.0469C58.918 17.0469 58.0594 16.688 57.3704 15.9691C56.6801 15.251 56.3359 14.3719 56.3359 13.3325C56.3359 12.2931 56.6801 11.4139 57.3704 10.6959C58.0594 9.97689 58.918 9.61766 59.9444 9.61766C60.9648 9.61766 61.8211 9.97879 62.5146 10.7006C63.2072 11.4223 63.5537 12.2996 63.5537 13.3325C63.5537 14.3719 63.2086 15.251 62.5192 15.9691Z" fill="white"/>
<path d="M58.0286 15.3724L57.9454 15.4557C58.4844 16.0099 59.1569 16.2914 59.9365 16.29C60.7155 16.2914 61.3894 16.0099 61.9269 15.4557C62.4696 14.9011 62.7425 14.1834 62.7416 13.3312C62.7425 12.4789 62.4696 11.7613 61.9269 11.2066C61.3894 10.6524 60.7155 10.3709 59.9365 10.3724C59.1569 10.3709 58.4844 10.6524 57.9454 11.2066C57.4041 11.7613 57.1312 12.4789 57.1321 13.3312C57.1312 14.1834 57.4041 14.9011 57.9454 15.4557L58.0286 15.3724L58.1123 15.2891C57.6157 14.7775 57.3675 14.1339 57.3662 13.3312C57.3675 12.5284 57.6157 11.8849 58.1123 11.3732H58.1119C58.6129 10.8617 59.2113 10.6108 59.9365 10.6094C60.661 10.6108 61.2609 10.8617 61.7605 11.3732L61.7624 11.3751L61.7605 11.3732C62.2584 11.8849 62.5062 12.5284 62.5075 13.3312C62.5062 14.1339 62.2584 14.7775 61.7605 15.2891C61.2609 15.8006 60.661 16.0515 59.9365 16.0529C59.2113 16.0515 58.6129 15.8006 58.1119 15.2891L58.0286 15.3724ZM62.5113 15.9677L62.4276 15.8854C61.7569 16.5817 60.9358 16.9256 59.9365 16.927C58.9366 16.9256 58.116 16.5817 57.4462 15.8854C56.7768 15.1867 56.4463 14.3442 56.445 13.3312C56.4463 12.3182 56.7768 11.4756 57.4462 10.777C58.116 10.0807 58.9366 9.73627 59.9365 9.73485C60.9299 9.73627 61.7487 10.0821 62.423 10.7821C63.0951 11.4839 63.4274 12.3252 63.4287 13.3312C63.4274 14.3442 63.096 15.1867 62.4276 15.8854L62.5113 15.9677L62.5953 16.0501C63.3049 15.3122 63.6637 14.3969 63.6628 13.3312C63.6637 12.2715 63.304 11.3581 62.5907 10.6169C61.8775 9.8728 60.9843 9.49651 59.9365 9.49781C58.8831 9.49651 57.987 9.87102 57.2784 10.6122V10.6118C56.5674 11.3501 56.21 12.2655 56.2109 13.3312C56.21 14.3969 56.5674 15.3122 57.2784 16.0506V16.0501C57.987 16.7913 58.8831 17.165 59.9365 17.1641C60.9893 17.165 61.8854 16.7913 62.5953 16.0501L62.5113 15.9677Z" fill="white"/>
<path d="M68.0896 17.0469C67.0564 17.0469 66.1901 16.6927 65.4905 15.9839C64.7897 15.2756 64.4413 14.3917 64.4413 13.3325C64.4413 12.2732 64.7897 11.3894 65.4905 10.6811C66.1901 9.97227 67.0564 9.61766 68.0896 9.61766C69.1479 9.61766 70.0084 10.0052 70.6689 10.7797L70.0403 11.3959C69.564 10.7931 68.9125 10.4922 68.0896 10.4922C67.3238 10.4922 66.6777 10.7538 66.152 11.2769C65.6253 11.8001 65.3625 12.4853 65.3625 13.3325C65.3625 14.1797 65.6253 14.8654 66.152 15.3881C66.6777 15.9112 67.3238 16.1728 68.0896 16.1728C68.9331 16.1728 69.6518 15.8287 70.2474 15.1404L70.8747 15.7755C70.5538 16.1663 70.1523 16.476 69.6677 16.7038C69.1844 16.9325 68.6574 17.0469 68.0896 17.0469Z" fill="white"/>
<path d="M68.0895 17.0455V16.927C67.0824 16.9256 66.2526 16.5853 65.5732 15.8988C64.8943 15.2112 64.5592 14.3641 64.5583 13.3312C64.5592 12.2983 64.8943 11.4511 65.5732 10.7636C66.2526 10.0765 67.0824 9.73627 68.0895 9.73485C69.1201 9.73674 69.9393 10.1062 70.5802 10.8557L70.6689 10.7784L70.5876 10.6932L69.959 11.3098L70.0403 11.3946L70.1317 11.3205C69.6353 10.69 68.9399 10.3706 68.0895 10.3724C67.2972 10.3714 66.6156 10.647 66.0702 11.1908C65.5193 11.7367 65.244 12.4598 65.2454 13.3312C65.244 14.2025 65.5193 14.9265 66.0702 15.4715C66.6156 16.0154 67.2972 16.2909 68.0895 16.29C68.965 16.2914 69.7235 15.9274 70.3351 15.2173L70.2474 15.1391L70.1646 15.2228L70.7919 15.858L70.8747 15.7742L70.7846 15.6988C70.4746 16.0756 70.0888 16.3738 69.6183 16.5951C69.1506 16.8163 68.6423 16.9265 68.0895 16.927V17.0455V17.1641C68.6729 17.1641 69.2179 17.0465 69.7171 16.8099C70.2163 16.5756 70.6324 16.2548 70.9647 15.8502L71.0328 15.7673L70.3302 15.0553L70.2415 14.9654L70.1592 15.0608C69.5804 15.728 68.9011 16.0515 68.0895 16.0529C67.3499 16.0515 66.7405 15.8043 66.2343 15.302H66.2339C65.731 14.802 65.4804 14.1543 65.4795 13.3312C65.4804 12.5081 65.731 11.8613 66.2339 11.3603H66.2343C66.7405 10.858 67.3499 10.6108 68.0895 10.6094C68.8846 10.6113 69.4921 10.8937 69.9489 11.4687L70.0293 11.5706L70.7503 10.8636L70.8298 10.7858L70.7576 10.7011C70.0778 9.90113 69.1758 9.49651 68.0895 9.49781C67.0298 9.49686 66.1268 9.86593 65.4078 10.596C64.6849 11.3247 64.3228 12.246 64.3242 13.3312C64.3228 14.4163 64.6849 15.3377 65.4078 16.0668C66.1268 16.7964 67.0298 17.165 68.0895 17.1641V17.0455Z" fill="white"/>
<path d="M74.5282 16.8867H73.6254V10.6492H71.6641V9.77561H76.4895V10.6492H74.5282V16.8867Z" fill="white"/>
<path d="M74.528 16.8854V16.7669H73.7423V10.5294H71.7809V9.8928H76.3723V10.5294H74.411V16.8854H74.528V16.7669V16.8854H74.6451V10.7664H76.6064V9.77428V9.65576H71.5469V10.6479V10.7664H73.5082V17.0039H74.528H74.6451V16.8854H74.528Z" fill="white"/>
<path d="M82.6831 9.77695L80.026 15.7755C79.6589 16.6233 79.1144 17.0469 78.3884 17.0469C78.1726 17.0469 77.9403 16.9941 77.6912 16.8881L77.9266 16.0436C78.0774 16.1301 78.2343 16.1728 78.3975 16.1728C78.6069 16.1728 78.7691 16.1316 78.8835 16.0492C78.9978 15.9663 79.1039 15.8149 79.2022 15.5968L79.4572 15.0302L77.0936 9.77695H78.1529L79.8888 13.8588H79.9277L81.6233 9.77695H82.6831Z" fill="white"/>
<path d="M82.6855 9.7756L82.5785 9.72701L79.9214 15.7261L79.9209 15.727C79.5597 16.5487 79.0664 16.9229 78.3908 16.927C78.1937 16.927 77.9769 16.8789 77.7388 16.7774L77.6936 16.8867L77.8064 16.9191L78.0414 16.0746L77.9289 16.0423L77.8718 16.1455C78.0383 16.2409 78.216 16.2904 78.3999 16.29C78.6234 16.29 78.8108 16.2469 78.954 16.1441C79.0948 16.0408 79.2077 15.8728 79.311 15.645L79.5662 15.0784L79.5881 15.0288L77.278 9.89412H78.0785L79.8139 13.976H79.93H80.0078L81.7034 9.89412H82.6855V9.7756L82.5785 9.72701L82.6855 9.7756V9.65708H81.6257H81.548L79.8217 13.8117L79.93 13.8575V13.739H79.8912V13.8575L79.9986 13.8108L78.2325 9.65708H77.096H76.914L79.3307 15.0288L79.098 15.5464C79.0052 15.7543 78.9055 15.8885 78.8177 15.951C78.7323 16.0136 78.5947 16.0534 78.3999 16.0529C78.2568 16.0529 78.1219 16.0163 77.9865 15.939L77.8567 15.865L77.5811 16.8544L77.5527 16.9552L77.6483 16.996C77.9084 17.1066 78.1558 17.164 78.3908 17.164C79.1665 17.1677 79.7627 16.6946 80.1353 15.8219L80.1349 15.8228L82.866 9.65708H82.6855V9.7756Z" fill="white"/>
<path d="M83.7031 16.8867V9.77561H88.7837V16.8867H87.8809V10.6492H84.6047V16.8867H83.7031Z" fill="white"/>
<path d="M83.7069 16.8854H83.8239V9.8928H88.6701V16.7669H88.0017V10.5294H84.4914V16.7669H83.7069V16.8854H83.8239H83.7069V17.0039H84.6084H84.7255V10.7664H87.7676V17.0039H88.7875H88.9045V9.65576H83.5898V17.0039H83.7069V16.8854Z" fill="white"/>
<path d="M90.3906 16.8867V9.77561H91.2926V12.8243H94.8037V9.77561H95.7067V16.8867H94.8037V13.6784H91.2926V16.8867H90.3906Z" fill="white"/>
<path d="M90.3944 16.8854H90.5114V9.8928H91.1794V12.9414H94.9245V9.8928H95.5934V16.7669H94.9245V13.5586H91.1794V16.7669H90.3944V16.8854H90.5114H90.3944V17.0039H91.2964H91.4134V13.7956H94.6905V17.0039H95.7104H95.8275V9.65576H94.8075H94.6905V12.7044H91.4134V9.65576H90.3944H90.2773V17.0039H90.3944V16.8854Z" fill="white"/>
<path d="M98.5796 15.3737C99.0999 15.9066 99.7353 16.1728 100.487 16.1728C101.239 16.1728 101.876 15.9066 102.395 15.3737C102.915 14.8409 103.176 14.1598 103.176 13.3325C103.176 12.5052 102.915 11.8241 102.395 11.2913C101.876 10.7584 101.239 10.4922 100.487 10.4922C99.7353 10.4922 99.0999 10.7584 98.5796 11.2913C98.0612 11.8241 97.8001 12.5052 97.8001 13.3325C97.8001 14.1598 98.0612 14.8409 98.5796 15.3737ZM103.062 15.9691C102.372 16.688 101.514 17.0469 100.487 17.0469C99.4611 17.0469 98.603 16.688 97.9135 15.9691C97.2232 15.251 96.8789 14.3719 96.8789 13.3325C96.8789 12.2931 97.2232 11.4139 97.9135 10.6959C98.603 9.97689 99.4611 9.61766 100.487 9.61766C101.508 9.61766 102.364 9.97879 103.058 10.7006C103.75 11.4223 104.097 12.2996 104.097 13.3325C104.097 14.3719 103.752 15.251 103.062 15.9691Z" fill="white"/>
<path d="M98.5794 15.3724L98.4963 15.4557C99.0357 16.0099 99.7078 16.2914 100.487 16.29C101.267 16.2914 101.94 16.0099 102.478 15.4557C103.021 14.9011 103.293 14.1834 103.293 13.3312C103.293 12.4789 103.021 11.7613 102.478 11.2066C101.94 10.6524 101.267 10.3709 100.487 10.3724C99.7078 10.3709 99.0357 10.6524 98.4963 11.2066C97.955 11.7613 97.682 12.4789 97.6829 13.3312C97.682 14.1834 97.955 14.9011 98.4963 15.4557L98.5794 15.3724L98.6631 15.2891C98.1666 14.7775 97.9184 14.1339 97.917 13.3312C97.9184 12.5284 98.1666 11.8849 98.6631 11.3732C99.1638 10.8617 99.7627 10.6108 100.487 10.6094C101.212 10.6108 101.812 10.8617 102.311 11.3732L102.315 11.377L102.311 11.3732C102.809 11.8849 103.057 12.5284 103.058 13.3312C103.057 14.1339 102.809 14.7775 102.311 15.2891C101.812 15.8006 101.212 16.0515 100.487 16.0529C99.7627 16.0515 99.1638 15.8006 98.6631 15.2891L98.5794 15.3724ZM103.062 15.9677L102.978 15.8854C102.308 16.5817 101.487 16.9256 100.487 16.927C99.4879 16.9256 98.6669 16.5817 97.9975 15.8854L97.9939 15.8817L97.9975 15.8854C97.3277 15.1867 96.9972 14.3442 96.9958 13.3312C96.9972 12.3182 97.3277 11.4756 97.9975 10.777C98.6669 10.0807 99.4879 9.73627 100.487 9.73485C101.481 9.73627 102.3 10.0821 102.974 10.7821C103.646 11.4839 103.979 12.3252 103.98 13.3312C103.979 14.3442 103.647 15.1867 102.978 15.8854L103.062 15.9677L103.146 16.0501C103.856 15.3122 104.215 14.3969 104.214 13.3312C104.215 12.2715 103.855 11.3581 103.142 10.6169C102.428 9.8728 101.535 9.49651 100.487 9.49781C99.4339 9.49651 98.5383 9.87102 97.8292 10.6122V10.6118C97.1183 11.3501 96.7608 12.2655 96.7617 13.3312C96.7608 14.3969 97.1183 15.3122 97.8292 16.0506V16.0501C98.5383 16.7913 99.4339 17.165 100.487 17.1641C101.541 17.165 102.436 16.7913 103.146 16.0501L103.062 15.9677Z" fill="white"/>
<path d="M108.69 16.0131H110.505C110.852 16.0131 111.133 15.8905 111.349 15.6446C111.565 15.4006 111.672 15.1321 111.672 14.8404C111.672 14.5492 111.561 14.283 111.339 14.0413C111.118 13.7997 110.825 13.6784 110.466 13.6784H108.69V16.0131ZM108.69 12.8243H110.329C110.669 12.8243 110.942 12.7108 111.148 12.4816C111.354 12.2534 111.457 12.0039 111.457 11.7321C111.457 11.4608 111.358 11.2117 111.157 10.9877C110.958 10.7622 110.695 10.6492 110.369 10.6492H108.69V12.8243ZM107.789 16.8867V9.77561H110.329C110.878 9.77561 111.354 9.95991 111.755 10.3265C112.158 10.6946 112.359 11.1561 112.359 11.7122C112.359 12.0496 112.273 12.3478 112.098 12.6062C111.926 12.8644 111.696 13.0599 111.408 13.1923V13.2316C111.753 13.3506 112.039 13.5561 112.261 13.8473C112.482 14.139 112.595 14.477 112.595 14.8608C112.595 15.4432 112.384 15.9265 111.961 16.3104C111.54 16.6946 111.042 16.8867 110.466 16.8867H107.789Z" fill="white"/>
<path d="M108.686 16.0118V16.1303H110.501C110.875 16.1317 111.197 15.9928 111.432 15.7224C111.664 15.4617 111.787 15.1608 111.785 14.839C111.787 14.5169 111.659 14.2173 111.42 13.959C111.178 13.6927 110.847 13.5571 110.462 13.5586H108.569V16.1303H108.686V16.0118H108.803V13.7956H110.462C110.796 13.7969 111.048 13.9044 111.249 14.1206C111.455 14.3465 111.55 14.5794 111.551 14.839C111.55 15.1006 111.458 15.3368 111.257 15.5645C111.062 15.7849 110.821 15.8914 110.501 15.8933H108.686V16.0118H108.803H108.686ZM108.686 12.8229V12.9414H110.325C110.69 12.9427 111.004 12.815 111.231 12.5599V12.5604C111.452 12.3159 111.57 12.0335 111.57 11.7308C111.57 11.4299 111.456 11.1484 111.24 10.9067V10.9072C111.021 10.6562 110.717 10.5279 110.364 10.5294H108.569V12.9414H108.686V12.8229H108.803V10.7664H110.364C110.665 10.7683 110.888 10.8655 111.066 11.0651L111.067 11.0659L111.066 11.0655C111.249 11.2729 111.335 11.4896 111.336 11.7308C111.335 11.971 111.247 12.1886 111.057 12.4002V12.4006C110.872 12.6039 110.64 12.703 110.325 12.7044H108.686V12.8229H108.803H108.686ZM107.785 16.8854H107.902V9.89279H110.325C110.848 9.89374 111.29 10.065 111.673 10.4132C112.053 10.7622 112.237 11.1841 112.238 11.7109C112.238 12.028 112.158 12.2998 111.998 12.5381C111.837 12.779 111.625 12.9585 111.355 13.0831L111.287 13.1146V13.2303V13.315L111.365 13.3423C111.692 13.4553 111.955 13.6451 112.165 13.9187L112.166 13.9201L112.165 13.9183C112.371 14.1905 112.474 14.4988 112.474 14.8594C112.472 15.4131 112.278 15.8562 111.879 16.2211C111.476 16.5864 111.012 16.7659 110.462 16.7669H107.785V16.8854H107.902H107.785V17.0039H110.462C111.063 17.0049 111.595 16.8002 112.036 16.397C112.481 15.9946 112.709 15.471 112.708 14.8594C112.709 14.4526 112.587 14.0849 112.349 13.7738L112.348 13.7724L112.349 13.7733C112.114 13.4651 111.808 13.2437 111.441 13.1183L111.404 13.2303H111.521V13.1909H111.404L111.452 13.2988C111.757 13.1586 112.008 12.9478 112.191 12.671V12.6715C112.379 12.3933 112.472 12.0687 112.472 11.7109C112.474 11.1261 112.256 10.6243 111.83 10.2372L111.827 10.235L111.83 10.2372C111.408 9.85155 110.899 9.65481 110.325 9.65576H107.668V17.0039H107.785V16.8854Z" fill="white"/>
<defs>
<linearGradient id="paint0_linear_508_1735" x1="25.514" y1="10.9155" x2="5.62517" y2="30.5557" gradientUnits="userSpaceOnUse">
<stop stop-color="#00A0FF"/>
<stop offset="0.00657445" stop-color="#00A1FF"/>
<stop offset="0.2601" stop-color="#00BEFF"/>
<stop offset="0.5122" stop-color="#00D2FF"/>
<stop offset="0.7604" stop-color="#00DFFF"/>
<stop offset="1" stop-color="#00E3FF"/>
</linearGradient>
<linearGradient id="paint1_linear_508_1735" x1="39.6" y1="24.298" x2="11.2805" y2="24.298" gradientUnits="userSpaceOnUse">
<stop stop-color="#FFE000"/>
<stop offset="0.4087" stop-color="#FFBD00"/>
<stop offset="0.7754" stop-color="#FFA500"/>
<stop offset="1" stop-color="#FF9C00"/>
</linearGradient>
<linearGradient id="paint2_linear_508_1735" x1="29.0548" y1="27.0173" x2="2.08409" y2="53.6509" gradientUnits="userSpaceOnUse">
<stop stop-color="#FF3A44"/>
<stop offset="1" stop-color="#C31162"/>
</linearGradient>
<linearGradient id="paint3_linear_508_1735" x1="8.53846" y1="0.804961" x2="20.582" y2="12.6979" gradientUnits="userSpaceOnUse">
<stop stop-color="#32A071"/>
<stop offset="0.0685" stop-color="#2DA771"/>
<stop offset="0.4762" stop-color="#15CF74"/>
<stop offset="0.8009" stop-color="#06E775"/>
<stop offset="1" stop-color="#00F076"/>
</linearGradient>
<linearGradient id="paint4_linear_508_1735" x1="39.5991" y1="24.298" x2="11.28" y2="24.298" gradientUnits="userSpaceOnUse">
<stop stop-color="#CCB300"/>
<stop offset="0.4087" stop-color="#CC9700"/>
<stop offset="0.7754" stop-color="#CC8400"/>
<stop offset="1" stop-color="#CC7D00"/>
</linearGradient>
<linearGradient id="paint5_linear_508_1735" x1="29.0582" y1="27.0173" x2="2.0875" y2="53.6509" gradientUnits="userSpaceOnUse">
<stop stop-color="#CC2E36"/>
<stop offset="1" stop-color="#9C0E4E"/>
</linearGradient>
<linearGradient id="paint6_linear_508_1735" x1="25.514" y1="10.9169" x2="5.62516" y2="30.5571" gradientUnits="userSpaceOnUse">
<stop stop-color="#008DE0"/>
<stop offset="0.00657445" stop-color="#008DE0"/>
<stop offset="0.2601" stop-color="#00A7E0"/>
<stop offset="0.5122" stop-color="#00B8E0"/>
<stop offset="0.7604" stop-color="#00C4E0"/>
<stop offset="1" stop-color="#00C7E0"/>
</linearGradient>
<linearGradient id="paint7_linear_508_1735" x1="29.0584" y1="27.0193" x2="2.08768" y2="53.6533" gradientUnits="userSpaceOnUse">
<stop stop-color="#E0333C"/>
<stop offset="1" stop-color="#AB0F56"/>
</linearGradient>
<linearGradient id="paint8_linear_508_1735" x1="39.5978" y1="24.2989" x2="11.2783" y2="24.2989" gradientUnits="userSpaceOnUse">
<stop stop-color="#E0C500"/>
<stop offset="0.4087" stop-color="#E0A600"/>
<stop offset="0.7754" stop-color="#E09100"/>
<stop offset="1" stop-color="#E08900"/>
</linearGradient>
<linearGradient id="paint9_linear_508_1735" x1="39.5982" y1="24.302" x2="11.2788" y2="24.302" gradientUnits="userSpaceOnUse">
<stop stop-color="#FFE840"/>
<stop offset="0.4087" stop-color="#FFCE40"/>
<stop offset="0.7754" stop-color="#FFBC40"/>
<stop offset="1" stop-color="#FFB540"/>
</linearGradient>
<linearGradient id="paint10_linear_508_1735" x1="25.5139" y1="10.9131" x2="5.62516" y2="30.5533" gradientUnits="userSpaceOnUse">
<stop stop-color="#40B8FF"/>
<stop offset="0.00657445" stop-color="#40B9FF"/>
<stop offset="0.2601" stop-color="#40CEFF"/>
<stop offset="0.5122" stop-color="#40DDFF"/>
<stop offset="0.7604" stop-color="#40E7FF"/>
<stop offset="1" stop-color="#40EAFF"/>
</linearGradient>
<linearGradient id="paint11_linear_508_1735" x1="8.54199" y1="0.801929" x2="20.5855" y2="12.6949" gradientUnits="userSpaceOnUse">
<stop stop-color="#65B895"/>
<stop offset="0.0685" stop-color="#62BD95"/>
<stop offset="0.4762" stop-color="#50DB97"/>
<stop offset="0.8009" stop-color="#44ED98"/>
<stop offset="1" stop-color="#40F498"/>
</linearGradient>
</defs>
</svg>
