<svg width="158" height="84" viewBox="0 0 158 84" fill="none" xmlns="http://www.w3.org/2000/svg">
<path fill-rule="evenodd" clip-rule="evenodd" d="M38.3954 31.9195C38.2781 32.191 38.1217 32.1134 37.9653 32.0746C37.8089 32.0358 37.5743 31.8419 37.6916 32.2686C37.6916 32.3074 37.6134 32.385 37.6134 32.385C36.9878 32.0358 36.7532 32.579 36.3622 32.8505C36.1276 33.0057 35.8149 33.0445 35.5412 32.7342C36.0494 32.7342 36.2449 32.4238 36.3231 32.0358C36.3622 31.7643 36.5186 31.5315 36.7532 31.6479C37.2615 31.9195 37.848 31.8031 38.3954 31.9195Z" fill="white"/>
<path fill-rule="evenodd" clip-rule="evenodd" d="M1.72037 83.0514C2.03316 82.935 2.15046 82.6247 2.34595 82.4307C2.58055 83.1678 2.34595 83.6721 1.75946 83.7497C1.48577 83.7885 1.32937 83.7109 1.36847 83.4006C1.44667 83.0902 1.72037 82.7023 1.05568 82.7799L0.97748 82.6247C1.17298 82.4695 1.17298 82.1203 1.44667 82.0428C1.64217 82.004 1.48577 82.2367 1.52487 82.2367C2.07226 82.4695 1.64217 82.8187 1.72037 83.0514Z" fill="white"/>
<path fill-rule="evenodd" clip-rule="evenodd" d="M12.8637 26.7597C12.7855 27.0313 13.0983 27.2252 12.9028 27.6132C12.5118 26.8373 11.8862 26.1778 12.0817 25.2079C12.3163 25.5182 12.59 25.751 12.7073 26.0614C12.8246 26.2554 12.5118 26.6045 12.8637 26.7597Z" fill="white"/>
<path fill-rule="evenodd" clip-rule="evenodd" d="M16.578 75.176C16.3434 74.5553 16.8908 74.2449 17.0863 73.8182C17.1254 73.7406 17.3209 73.7018 17.3991 73.7794C17.5164 73.8958 17.5164 74.0898 17.4382 74.2061C17.1645 74.5553 17.0081 74.9433 16.578 75.176Z" fill="white"/>
<path fill-rule="evenodd" clip-rule="evenodd" d="M14.0366 70.7534C13.8802 70.9861 13.9193 71.2189 13.6456 71.2965C13.5674 70.9861 13.02 71.0637 13.02 70.6758C13.02 70.4818 13.1764 70.3266 13.3719 70.4042C13.6065 70.4818 13.8802 70.5594 14.0366 70.7534Z" fill="white"/>
<path fill-rule="evenodd" clip-rule="evenodd" d="M21.7392 64.1194C21.5828 64.7013 21.3091 65.0117 21.1136 65.322C20.9963 65.4772 20.8399 65.6712 20.6053 65.4772C20.4489 65.3221 20.6053 65.1669 20.7226 65.0117C21.0354 64.7789 21.3482 64.5074 21.7392 64.1194Z" fill="white"/>
<path fill-rule="evenodd" clip-rule="evenodd" d="M32.4133 54.3042C32.3742 54.7698 32.2178 55.1965 31.8268 55.7009C31.6704 54.9638 32.1005 54.6534 32.4133 54.3042Z" fill="white"/>
<path fill-rule="evenodd" clip-rule="evenodd" d="M40.3112 33.0445C40.1157 33.0445 40.0375 32.9281 39.9984 32.8117C39.9202 32.6566 39.7638 32.4626 39.9202 32.2686C40.0375 32.1134 40.1939 32.1134 40.3503 32.1522C40.3894 32.1522 40.5458 32.191 40.4285 32.2298C39.9593 32.4238 40.624 32.8117 40.3112 33.0445Z" fill="white"/>
<path fill-rule="evenodd" clip-rule="evenodd" d="M7.74165 76.5726C7.50706 76.5726 7.31156 76.5727 7.35066 76.2623C7.38976 75.9907 7.54616 75.9131 7.81985 75.9131C8.13264 75.9131 8.09354 76.0683 7.74165 76.5726Z" fill="white"/>
<path fill-rule="evenodd" clip-rule="evenodd" d="M12.199 72.7707C12.3945 72.538 12.1599 72.1112 12.5509 72.1112C12.7464 72.1112 12.8637 72.4604 12.8246 72.6155C12.7464 73.0035 12.4336 72.6155 12.199 72.7707Z" fill="white"/>
<path fill-rule="evenodd" clip-rule="evenodd" d="M12.3945 27.458C12.5509 27.6132 12.8637 27.5744 12.8637 27.8848C12.8637 28.0399 12.7073 28.1563 12.5118 28.1175C12.3163 28.0787 12.199 27.9623 12.199 27.7296C12.199 27.6132 12.199 27.458 12.3945 27.458Z" fill="white"/>
<path fill-rule="evenodd" clip-rule="evenodd" d="M38.2391 33.1997C38.2 33.2385 38.1218 33.3161 38.0827 33.3549C38.0436 33.3161 38.0045 33.3161 37.9654 33.2773C37.7308 33.1997 37.6135 33.0057 37.6135 32.7341C37.6135 32.6954 37.809 32.6566 37.8872 32.6566C38.2391 32.6954 38.2391 32.9281 38.2391 33.1997Z" fill="white"/>
<path fill-rule="evenodd" clip-rule="evenodd" d="M44.143 34.1308C43.752 34.3635 43.5174 34.5575 43.2437 34.3247C43.2046 34.286 43.2437 34.092 43.2828 34.0144C43.5565 33.704 43.7129 34.092 44.143 34.1308Z" fill="white"/>
<path fill-rule="evenodd" clip-rule="evenodd" d="M11.9643 78.5512C11.8079 78.5124 11.6515 78.396 11.7297 78.2796C11.8079 78.0857 12.0425 78.0081 12.2771 78.0081C12.3944 78.0081 12.5508 78.0081 12.5117 78.1633C12.3944 78.4348 12.1207 78.4348 11.9643 78.5512Z" fill="white"/>
<path fill-rule="evenodd" clip-rule="evenodd" d="M13.5674 77.1934C13.5674 77.0382 13.5283 76.883 13.5674 76.8054C13.7238 76.6502 13.9193 76.5726 14.1148 76.4563C14.1148 76.4563 14.193 76.5339 14.2321 76.6114C14.2712 76.883 13.9975 76.883 13.8411 76.9994C13.7629 77.0382 13.6847 77.077 13.5674 77.1934Z" fill="white"/>
<path fill-rule="evenodd" clip-rule="evenodd" d="M0.703786 83.4006C0.625588 83.5946 0.625588 83.6334 0.625588 83.6334C0.351893 83.5946 0.430091 84.0989 0.117298 83.9825C0.0390992 83.9825 0 83.7885 0 83.7885C0.195496 83.6722 0.390992 83.5558 0.703786 83.4006Z" fill="white"/>
<path fill-rule="evenodd" clip-rule="evenodd" d="M35.9713 31.7643C35.6976 31.6091 35.4239 31.6867 35.3848 31.3763C35.3848 31.2987 35.3848 31.1823 35.5021 31.1823C35.7367 31.2599 35.8931 31.4151 35.9713 31.7643Z" fill="white"/>
<path fill-rule="evenodd" clip-rule="evenodd" d="M27.8387 29.5917C27.8778 29.5917 27.9169 29.5917 27.956 29.5917C28.1906 29.5917 28.4252 29.5529 28.4643 29.8245C28.4643 29.8633 28.3861 29.9021 28.347 29.9409C28.2297 29.8245 27.8387 29.9797 27.8387 29.5917Z" fill="white"/>
<path fill-rule="evenodd" clip-rule="evenodd" d="M22.6775 28.5831C22.873 28.6219 23.0294 28.2727 23.264 28.5055C23.3031 28.5443 23.264 28.6995 23.2249 28.7382C22.9903 28.8934 22.8339 28.6607 22.6775 28.5831Z" fill="white"/>
<path fill-rule="evenodd" clip-rule="evenodd" d="M28.9334 30.5616C28.6597 30.872 28.4251 30.872 28.1123 30.5616C28.386 30.5616 28.6206 30.5616 28.9334 30.5616Z" fill="white"/>
<path fill-rule="evenodd" clip-rule="evenodd" d="M5.31753 81.6548C5.51302 81.3057 5.70852 81.3444 5.94311 81.422C5.98221 81.422 5.98221 81.5772 5.98221 81.5772C5.78672 81.7712 5.59122 81.5772 5.31753 81.6548Z" fill="white"/>
<path fill-rule="evenodd" clip-rule="evenodd" d="M34.5637 52.5973C34.9156 52.9076 34.8374 53.0628 34.7592 53.2568C34.4464 53.1404 34.6419 52.9464 34.5637 52.5973Z" fill="white"/>
<path fill-rule="evenodd" clip-rule="evenodd" d="M34.9938 30.8332C34.9156 31.1047 34.7201 31.1047 34.3682 31.2599C34.5637 30.872 34.7201 30.7944 34.9938 30.8332Z" fill="white"/>
<path fill-rule="evenodd" clip-rule="evenodd" d="M22.7167 29.0486C22.9513 28.8158 23.225 28.971 23.4596 28.971C23.225 29.0486 22.9904 29.2038 22.7167 29.0486Z" fill="white"/>
<path fill-rule="evenodd" clip-rule="evenodd" d="M42.6964 34.2472C42.6964 33.898 42.6964 33.704 42.6964 33.3937C42.8137 33.704 42.9701 33.8592 42.6964 34.2472Z" fill="white"/>
<path fill-rule="evenodd" clip-rule="evenodd" d="M41.3279 32.579C40.9369 32.8117 40.7805 32.6566 40.4677 32.579C40.7805 32.579 40.9369 32.579 41.3279 32.579Z" fill="white"/>
<path d="M51.2982 0.495403C51.2982 0.379017 51.22 0.262632 51.1028 0.301427C50.2035 0.572993 49.4215 0.689378 48.4831 0.107451C48.0139 -0.164115 47.1537 0.146246 46.489 0.301427C45.668 0.495403 44.8078 0.611788 44.1431 1.07733C43.6739 1.42649 43.2047 1.69805 42.6573 1.89203C42.3054 2.00841 41.9926 2.1248 41.9535 2.62914C41.9144 2.86191 41.6407 3.05588 41.2888 2.82311C41.0543 2.66793 40.7024 2.35757 40.4678 2.9395C40.3896 3.17227 40.0768 3.13347 39.8813 3.13347C39.0602 3.13347 38.2782 3.17227 37.4962 3.59901C37.1834 3.79299 36.7924 3.83178 36.4405 3.90937C36.2841 3.94817 36.0887 3.98696 36.0887 4.14215C36.0496 4.84046 35.5022 4.87925 34.9939 4.95684C34.642 5.03443 34.251 5.03443 34.2901 5.57757C34.2901 5.88793 34.0555 6.0819 33.7036 6.04311C33.469 6.00431 33.1953 6.00431 33.1171 6.23708C33.0389 6.66383 32.7261 6.58624 32.4524 6.70262C31.9832 6.93539 31.3967 6.43106 30.9276 7.01298C29.9892 8.17684 28.6598 8.79756 27.2522 9.2631C25.4537 9.84503 23.6551 10.3882 22.1693 11.6296C21.9347 11.8236 21.7783 12.0176 22.052 12.2115C22.5212 12.4831 22.1693 12.6383 22.0129 12.8323C21.9347 12.9874 21.6219 12.9098 21.661 13.1814C21.7783 13.2978 22.0129 13.1426 22.0911 13.3366C21.1918 13.4142 21.1918 13.4142 21.0354 12.7935C20.6836 12.7547 20.7618 13.3754 20.449 13.2978C19.8625 13.1814 20.1362 13.6857 19.9798 13.8797C19.9016 13.9961 19.8234 14.0349 19.7452 13.8021C19.6279 13.453 19.3151 13.6857 19.1196 13.647C19.0023 13.647 19.0023 13.6857 18.9632 13.8021C18.885 14.3453 18.2594 15.0048 17.8293 14.8884C17.0864 14.7332 16.8909 15.2763 16.6954 15.6255C16.2653 16.4014 15.8353 17.1385 14.8969 17.5265C15.3661 17.5265 15.5225 17.6041 15.3661 18.0696C15.2097 18.5739 14.7014 18.7291 14.4277 19.0007C13.4111 19.9318 12.7073 20.9404 12.59 22.2983C12.59 22.4922 12.7464 22.7638 12.3554 22.8026C11.7689 22.8802 11.8862 23.1906 12.1208 23.6173C12.2772 23.8889 12.6291 24.0828 12.5118 24.4708C12.3945 24.9363 12.6291 24.82 12.9028 24.7036C13.0201 24.6648 13.0983 24.5096 13.2547 24.626C13.372 25.1691 13.4893 25.7122 13.6066 26.2554C13.6457 26.3718 13.9194 26.4493 13.6848 26.6045C13.5675 26.7209 13.4111 26.6821 13.2547 26.6045C13.1374 26.5657 12.9028 26.2166 12.8637 26.6821C13.4111 27.1089 13.4502 27.7684 13.4502 28.3115C13.4502 28.5831 13.7239 29.0098 13.4502 29.1262C12.981 29.3202 13.3329 29.553 13.4111 29.6305C13.6066 29.9021 13.763 30.2125 14.154 30.2513C14.2713 30.2513 14.3495 30.2125 14.3104 30.0961C14.1931 29.7469 14.3495 29.7857 14.5059 29.9797C14.8187 30.2901 15.0533 30.6392 15.3661 30.9884C15.0924 31.1048 14.8187 30.9496 14.5841 31.1436C14.6232 31.2211 14.6623 31.2987 14.7014 31.3375C14.7405 31.3763 14.8187 31.4539 14.8578 31.4151C15.6789 31.1824 15.7962 31.7643 15.9135 32.3462C15.9526 32.4626 15.9135 32.6178 16.1089 32.6566C16.6954 32.773 17.0082 33.3161 17.3992 33.6652C17.8293 34.0532 18.1812 34.4799 18.7677 34.6739C19.5497 34.9067 20.3317 35.217 21.1136 35.5274C21.5046 35.6826 21.8956 35.9154 22.3648 35.8766C22.7949 35.8378 23.1468 35.7602 23.4596 36.1869C23.616 36.4197 23.9679 36.3421 24.2416 36.1093C24.4371 35.9542 24.7108 35.7214 24.9063 35.9154C25.2191 36.2645 25.6101 36.2257 25.962 36.3421C28.4252 37.1568 30.8885 37.8939 33.3908 38.5922C35.1503 39.0578 36.9879 39.2129 38.591 40.2604C39.3339 40.7648 40.1941 41.0751 40.8979 41.6182C41.8753 42.3166 41.9926 42.7045 41.6407 43.558C41.1716 44.6831 40.5851 45.6917 39.8031 46.6616C39.373 47.2047 38.5128 47.7091 39.373 48.5626C39.5685 48.7565 39.2948 48.8729 39.1775 48.9505C39.0211 49.0669 38.982 48.8729 38.9038 48.7953C38.6301 48.6014 38.7083 48.3686 38.7474 48.097C38.3955 48.9117 37.2616 49.0669 37.1052 50.0756C37.2616 50.0756 37.4571 50.1144 37.6917 50.1144C37.3789 50.6963 37.027 50.1532 36.7533 50.192C36.4014 50.2308 36.636 51.0067 36.0105 50.8903C35.7368 50.8515 35.5413 51.0067 35.3458 51.1618C35.1894 51.2782 35.1112 51.4334 35.1503 51.6274C35.4631 52.5973 35.1112 53.4896 34.8766 54.3818C34.8375 54.537 34.8375 54.731 34.642 54.6922C34.4465 54.6534 34.4465 54.4206 34.3683 54.2655C34.3292 54.1491 34.642 54.0715 34.4465 53.9551C34.2901 53.8387 34.1728 54.0327 34.0555 54.1103C33.6254 54.4206 33.4299 55.0026 32.8043 55.0802C32.7652 55.0802 32.687 55.1965 32.687 55.2353C32.687 55.3905 32.8043 55.2741 32.8825 55.2741C33.078 55.2353 33.1953 55.3517 33.1953 55.5069C33.1953 55.6233 33.078 55.6621 32.9998 55.6233C32.8434 55.5845 32.5306 55.7785 32.4915 55.5069C32.4133 54.9638 32.1005 55.1965 32.0614 55.4293C31.9441 55.8561 31.6704 55.7397 31.3967 55.7785C31.1231 55.7785 30.7321 55.5845 30.6148 56.0888C30.5757 56.2052 30.4193 56.1664 30.302 56.1664C29.911 56.244 29.52 56.3216 29.1681 56.438C28.5425 56.632 28.4643 56.8647 28.7771 57.4855C29.0117 57.951 28.8944 58.2614 28.3861 58.3002C28.0733 58.3389 28.0733 58.4553 28.0342 58.7269C27.956 59.1536 27.9951 59.8132 27.4868 60.0071C26.5093 60.3175 26.0792 61.0546 25.8838 61.8693C25.6492 62.7228 24.9845 62.8004 24.398 63.0332C24.3198 63.072 24.2416 63.1107 24.1634 63.0332C23.7724 62.8004 23.2641 63.3823 22.9122 62.878C22.8731 62.8392 22.7558 62.9168 22.7167 63.0332C22.5994 63.3047 22.3648 63.6151 22.4821 63.8866C22.5994 64.197 22.443 64.2358 22.2475 64.391C21.5437 64.7789 20.9964 65.3221 20.84 66.1368C20.7618 66.4471 20.6836 66.5635 20.3317 66.4083C20.0971 66.2919 19.7843 66.3307 19.7452 66.6799C19.667 67.1066 19.3542 67.1066 19.0805 67.0291C18.5331 66.8739 18.494 67.417 18.1812 67.611C18.3767 67.8438 18.2594 67.8825 18.0248 68.0377C17.0473 68.6197 15.7571 68.5809 15.0533 69.6283C15.0142 69.7059 14.8578 69.7059 14.7796 69.7447C14.3104 69.9387 14.1149 70.7146 14.3886 71.1413C14.6232 70.831 14.5841 70.443 14.6232 70.0163C14.8578 70.1715 15.327 70.0551 15.2097 70.443C15.1315 70.7534 15.1315 71.2965 14.7014 71.2965C14.0758 71.2965 13.372 71.6069 12.8246 71.025C12.7073 70.9086 12.59 70.8698 12.4727 71.025C12.3945 71.1413 12.3945 71.2965 12.5509 71.3741C12.7855 71.5681 13.0201 71.8397 13.4111 71.7621C13.5675 71.7233 13.7239 71.8009 13.763 71.9948C13.8021 72.1888 13.6066 72.3052 13.4893 72.3828C13.1374 72.538 13.4111 71.956 13.0983 72.0336C12.4336 72.6931 13.2547 73.3527 13.0592 74.0122C12.7464 73.9346 12.6291 73.7018 12.5118 73.5078C12.4336 73.3915 12.2381 73.1587 12.1599 73.2363C11.8862 73.5854 11.5343 73.3527 11.2215 73.469C11.2606 73.7406 11.1824 74.0122 10.9088 74.051C10.6742 74.0898 10.4005 74.0122 10.1659 73.9346C10.0486 73.8958 10.0486 73.7018 10.1659 73.7018C10.4787 73.663 10.3223 72.9647 10.7524 73.2751C10.9088 73.3915 11.026 73.5078 11.2215 73.5078C11.1433 73.3915 11.0651 73.2751 10.987 73.1587C10.9088 73.0423 11.2997 72.7319 10.987 72.7707C10.6742 72.8095 10.0877 72.7319 10.0877 72.9259C10.0486 73.4303 9.50118 73.469 9.46208 73.857C9.57938 73.9346 9.89217 73.7018 9.77487 74.0898C9.69668 74.4001 9.65758 74.4389 10.0095 74.4001C10.1268 74.4001 10.205 74.3225 10.2832 74.4777C10.3614 74.6329 10.205 74.6717 10.1268 74.7105C9.93127 74.8269 9.69668 75.176 9.46208 74.7493C9.42298 74.6717 9.18839 74.6717 9.11019 74.8269C8.95379 75.3312 8.4846 75.564 7.97631 75.7968C8.91469 75.8743 8.91469 75.8743 8.4846 76.6114C8.4455 76.6502 8.3282 76.7278 8.4455 76.8054C8.7192 77.0382 8.5628 77.077 8.3282 77.077C8.13271 77.077 7.93721 77.077 7.74171 77.077C7.70262 76.8442 7.93721 76.5727 7.66352 76.4175C7.50712 76.7666 7.35072 77.1158 7.19433 77.4649C7.11613 77.6201 7.07703 77.8141 6.84243 77.6589C6.56874 77.4649 6.33414 77.6977 6.06045 77.8529C6.09955 77.5813 6.33414 77.3486 6.09955 77.271C5.90405 77.1934 5.70856 77.3486 5.63036 77.6201C5.59126 77.6977 5.55216 77.7365 5.55216 77.8141C5.55216 78.0857 5.31756 78.1633 5.16117 78.1633C4.88747 78.1633 5.12207 77.8141 4.88747 77.6977C4.80927 78.0081 4.10549 77.9305 4.57468 78.59C4.84837 78.9392 4.26188 79.3659 3.6754 79.2107C3.3235 79.0943 2.97161 79.0167 2.89341 79.4823C2.81521 79.8314 2.73701 80.2194 3.12801 80.5686C3.3626 79.9866 3.87089 79.7927 4.26188 79.4435C4.37918 79.8315 4.84837 80.103 4.45738 80.5686C4.34008 80.6849 4.30098 80.9177 4.06639 80.8013C3.87089 80.7237 3.83179 80.5298 3.94909 80.3358C4.02729 80.1806 4.06639 80.0254 3.87089 79.8702C3.83179 79.9478 3.79269 80.0254 3.79269 80.0642C3.75359 80.491 3.75359 80.9177 3.75359 81.3057C3.75359 81.616 3.519 81.616 3.4408 81.6936C3.2453 81.81 3.2844 81.5772 3.2844 81.4608C3.2844 81.1893 3.08891 81.1893 2.93251 81.2281C2.69792 81.2669 2.73701 81.4996 2.77611 81.5772C2.93251 81.9264 2.81521 82.198 2.61972 82.4695C2.97161 82.6247 3.20621 82.4695 3.3626 82.2755C3.6363 81.9652 3.90999 82.3531 4.18369 82.2367C4.22278 82.2367 4.22279 82.198 4.22279 82.198C4.18369 81.7324 4.57468 81.6548 4.84837 81.4608C5.35666 81.1505 4.53558 80.8789 4.84837 80.6074C4.88747 80.5686 4.92657 80.5686 4.96567 80.5686C5.16117 80.6461 5.12207 81.0341 5.43486 80.9177C5.63036 80.8401 5.66946 80.6073 5.59126 80.4522C5.23936 79.8314 5.74765 79.7539 6.09955 79.4435C6.13865 79.7927 6.13865 80.0642 6.17775 80.4134C6.25594 80.3358 6.33414 80.3358 6.37324 80.2582C6.64694 79.909 6.64694 79.1719 7.42892 79.4435C7.50712 79.4823 7.78081 79.2883 7.66352 79.0168C7.62442 78.9392 7.50712 78.396 8.05451 78.6676C8.21091 78.7452 8.3673 78.0857 8.6801 78.5512C8.7192 78.5124 8.83649 78.4736 8.83649 78.4348C8.83649 77.8917 10.0095 78.2021 9.57938 77.3486L9.65758 77.271C10.2441 77.5425 10.4396 76.9218 10.7915 76.7278C11.0651 77.1546 10.4396 77.2322 10.5569 77.6589C10.7915 77.4649 11.026 77.3486 11.2997 77.5813C11.4952 77.7365 11.6907 77.5037 11.6516 77.3486C11.3388 76.4175 12.59 76.3787 12.59 75.6416C12.6291 75.6416 12.7073 75.6416 12.7073 75.6804C12.9419 75.9519 13.372 75.37 13.6066 75.8743C13.6457 75.9907 13.9194 75.8743 13.9585 75.564C13.9976 75.0984 14.4668 75.0596 14.7796 74.9821C15.0533 74.9045 15.4052 74.8657 15.718 75.0209C15.9526 75.1372 15.9917 74.9821 15.9917 74.8269C15.9917 74.6717 15.9917 74.4777 15.9917 74.2837C15.7962 74.1674 15.6789 73.7018 15.5225 73.9346C15.2879 74.2062 14.7405 74.1674 14.7796 74.6717C14.545 74.5553 14.3495 74.4389 14.1149 74.3613C14.5841 73.9734 15.1315 73.7406 15.6789 73.663C16.2262 73.5854 15.9526 74.0122 15.9917 74.2449V74.2837C16.3044 74.2449 16.539 74.051 16.539 73.7406C16.539 73.4303 16.4999 73.0811 17.0082 73.3139C17.1255 73.3527 17.3992 73.3139 17.3992 73.0423C17.3992 72.6156 17.6729 72.4216 18.0639 72.4216C18.3767 72.4216 18.494 72.3052 18.4158 72.0336C18.2594 71.4129 18.6895 71.6845 19.0023 71.6457C18.7286 72.15 18.5331 72.6156 18.103 72.9259C17.9466 73.0811 17.8293 73.2751 17.7511 73.469C17.712 73.5854 17.712 73.8182 17.9857 73.7018C18.3376 73.5078 18.8068 73.3915 19.0805 73.0811C19.5888 72.4992 20.2144 72.0724 20.8009 71.5681C21.4655 70.9862 22.443 70.5206 22.5603 69.5895C22.7167 68.6584 23.2641 68.736 23.8897 68.6585C24.0461 68.6197 24.1634 68.5421 24.3198 68.5033C23.9288 68.5033 23.6942 68.2705 23.5769 67.9213C23.5378 67.8438 23.616 67.7274 23.6551 67.6886C23.8897 67.611 23.8506 68.0377 24.1243 67.9601C24.1634 67.4558 24.1634 67.4558 24.789 67.4946C24.6717 67.6498 24.4371 67.805 24.7499 67.9989C24.9454 68.1153 25.1409 68.2317 25.3755 68.0765C25.571 67.9213 25.7274 67.9601 25.8056 68.2317C26.4702 67.7662 26.2747 66.8739 26.7048 66.2919C27.2522 66.8351 27.2522 66.7963 27.6432 66.098C27.7996 65.8264 27.7605 65.4773 28.1124 65.2833C29.52 64.4686 30.8494 63.6151 32.3742 63.0332C32.7261 62.878 33.1171 62.7616 32.7652 62.2573C32.687 62.1797 32.7261 61.9081 32.9216 61.9857C33.7036 62.2961 34.1337 61.6365 34.6811 61.3262C35.7368 60.6279 36.5187 59.658 37.2616 58.6881C37.418 58.4941 37.6135 58.2226 37.9263 58.4553C38.3564 58.8045 38.591 58.5329 38.8647 58.2226C39.373 57.6406 39.3339 56.8259 39.8422 56.2828C40.1159 56.3992 40.3114 57.3303 40.6633 56.3216C40.6633 56.2828 40.7415 56.244 40.8197 56.2052C42.149 55.3517 42.9701 54.1879 42.931 52.5973C42.931 52.4033 42.931 52.2481 43.0874 52.1317C43.1656 52.0541 43.2829 52.0929 43.322 52.1705C43.4002 52.3257 43.5957 52.5973 43.4393 52.7137C42.8919 53.1404 43.5957 53.4508 43.4784 53.8387C43.6348 53.4896 43.5566 52.9464 44.0258 52.9076C44.9251 52.8688 44.886 52.1705 45.0033 51.6662C45.0815 51.2006 45.4334 50.6963 45.8635 50.8127C46.1763 50.8903 46.1371 50.7351 46.2153 50.5799C46.7627 49.7652 47.271 48.9117 47.7793 48.097C48.9523 46.1185 49.4606 43.946 49.226 41.657C49.226 41.5407 49.226 41.3855 49.0696 41.4243C48.2485 41.6182 48.8741 40.9587 48.6786 40.8035C49.0305 40.4156 48.7568 40.0664 48.5613 39.7173C48.1703 39.0578 47.5838 38.6698 46.9582 38.2819C46.7627 38.1655 46.5281 38.0103 46.6845 37.7775C46.9973 37.2344 46.9582 36.6137 47.0755 36.0317C47.1146 35.9154 47.1537 35.6826 46.9191 35.6826C46.7236 35.6438 46.6063 35.7602 46.5281 35.9542C46.4499 36.2257 46.2936 36.4973 46.1763 36.7301C46.0981 36.8852 46.059 37.118 45.8635 37.0792C45.6289 37.0404 45.5116 36.8852 45.4725 36.6137C45.4334 36.3033 45.3161 35.993 45.2379 35.6826C45.4725 35.7602 45.6289 35.8378 45.7853 35.9929C45.8635 36.0705 46.059 36.1093 46.1372 35.9542C46.3717 35.5274 45.7071 35.0619 46.0981 34.6351C45.7071 34.5575 45.277 35.0231 44.9642 34.4799C44.9642 34.4799 44.886 34.5187 44.8469 34.5187C44.3386 34.9455 44.3386 34.9843 43.8303 34.5963C43.6739 34.4799 43.5566 34.4024 43.3611 34.5187C43.1265 34.6351 42.931 34.5575 42.6964 34.4411C42.2272 34.2084 42.2272 33.5877 41.6798 33.4325C41.9535 33.2773 42.1881 33.5877 42.2663 33.2773C42.3054 33.0833 42.0708 32.8893 41.9144 32.8505C41.6016 32.773 41.4843 33.0833 41.367 33.2773C40.9761 34.092 40.0377 34.2472 39.3339 33.6264C39.4903 33.5489 39.6076 33.4325 39.7249 33.4325C39.9595 33.4325 40.0377 33.2385 40.0377 33.0833C40.0377 32.8505 39.8031 32.8893 39.6076 32.8893C39.1384 32.8118 38.7474 33.0057 38.3564 33.1609C38.2782 33.1997 38.2391 33.2385 38.2 33.3161C37.9263 33.5877 37.6526 33.7428 37.2225 33.5101C37.0661 33.4325 36.7924 33.3937 36.636 33.4713C36.0887 33.704 35.7759 33.5101 35.5022 33.0057C35.3849 32.8117 35.1503 32.6566 35.4631 32.4238C35.6586 32.3074 35.5413 32.2298 35.3849 32.191C35.2676 32.1522 34.8766 32.0358 34.7593 32.0746C34.5247 32.1522 34.2901 32.191 34.0164 32.1134C33.7427 32.0358 33.3908 31.8807 33.1171 32.4626C32.9216 32.8505 32.1396 32.6954 31.5922 32.4238C32.3351 32.1522 33.0389 31.7643 33.8209 31.9195C34.0555 31.9583 34.1337 31.8419 34.1337 31.6091C34.1337 31.3763 33.9773 31.3763 33.8209 31.4151C33.5863 31.4151 33.3908 31.6479 33.1562 31.4927C33.3126 31.3763 33.469 31.3375 33.6254 31.2599C33.8209 31.1824 34.1337 31.1436 34.1728 30.8332C34.1728 30.7944 34.1337 30.678 34.1337 30.6392C33.86 30.6004 33.6645 30.7556 33.5081 30.9108C33.2735 31.2599 32.9607 31.066 32.7261 30.9496C32.6479 30.9108 32.7261 30.6004 32.687 30.4064C32.6479 30.2901 32.9998 30.3289 32.7652 30.1737C32.687 30.1349 32.4915 30.0961 32.4133 30.2513C32.3742 30.3677 32.3742 30.484 32.3742 30.6392C31.8659 30.0185 31.8268 30.0185 31.3576 30.5616C31.2012 30.7556 31.0449 31.0272 30.693 30.9108C30.693 30.7556 31.0058 30.6392 30.8494 30.484C30.7321 30.4065 30.4193 30.3677 30.3411 30.4452C30.0283 30.7944 29.4418 30.872 29.2854 31.3763C29.2463 31.5703 29.1681 31.6091 28.9726 31.6479C28.5816 31.7255 28.2297 31.2987 27.8387 31.6091C27.3695 30.872 27.0567 31.6479 26.9785 31.8031C26.783 32.191 26.783 31.8031 26.7439 31.7643C26.5484 31.4151 26.783 31.1436 27.0176 30.9884C27.2522 30.8332 27.2131 30.678 27.174 30.484C27.1349 30.4065 27.0567 30.3289 26.9785 30.3289C26.7439 30.3289 26.7439 30.5616 26.6657 30.7168C26.5484 30.9884 26.5484 31.2599 26.3138 31.4927C26.0402 31.066 25.4537 31.066 25.1018 30.7556C25.3364 30.4065 25.571 30.7944 25.7665 30.7168C25.9229 30.678 26.0792 30.6392 26.0792 30.4452C26.0792 30.2513 25.8838 30.3289 25.7665 30.3289C25.5319 30.3289 25.2582 30.3289 24.9454 30.3289C25.1409 30.0573 25.3364 30.0185 25.571 30.0573C25.5319 29.7469 25.6492 29.4754 25.7665 29.1262C25.8838 29.5142 25.8447 29.7857 25.571 30.0185V30.0573C25.8838 30.3677 26.1183 30.0573 26.392 29.9797C26.5875 29.9409 26.783 29.6305 26.9394 29.9021C27.0958 30.1737 27.174 30.0961 27.3304 29.9409C27.4868 29.7857 27.6432 29.6693 27.7996 29.5142C27.6041 28.5443 27.2913 29.4754 27.0567 29.4366C26.9394 28.6995 26.392 28.8159 25.8447 28.8934C25.6883 28.6995 26.1184 28.7383 25.962 28.5443C25.8447 28.4279 25.7665 28.4279 25.6101 28.5055C25.3755 28.6607 25.18 28.4667 24.9845 28.3503C24.7499 28.2339 24.398 28.2339 24.3589 28.3115C24.2807 28.8934 23.5769 28.7771 23.3814 29.2038C23.3032 29.3202 23.1859 29.5142 22.9513 29.4366C22.7167 29.3202 22.6385 29.165 22.6385 28.9322C22.0129 29.2038 21.3873 29.0486 20.7618 28.9322C20.6054 28.8934 20.3317 29.0098 20.3708 28.6995C20.4099 28.5055 20.1753 28.1951 20.6054 28.1175C20.9182 28.0399 21.0746 27.7684 21.27 27.4968C21.3091 27.5744 21.3482 27.652 21.4264 27.7296C21.5437 27.846 21.661 28.1175 21.8174 27.9236C22.0129 27.7684 21.7392 27.652 21.661 27.5356C21.27 26.9537 20.8791 27.3028 20.5663 27.5744C20.3317 27.7684 20.1753 27.8072 20.0189 27.652C19.9016 27.4968 20.0189 27.3028 20.2144 27.2252C20.3708 27.1477 20.5272 27.0701 20.4881 26.9149C20.449 26.7209 20.1753 26.8761 20.0971 26.8373C19.7843 26.6433 19.1978 26.7597 19.2369 26.333C19.3151 25.5959 19.1978 25.2079 18.2203 25.3631C18.5722 25.1303 18.885 25.3243 19.0805 25.0915C18.7677 24.8975 18.9632 24.432 18.7677 24.0828C18.3767 23.3845 19.0414 23.5009 19.3933 23.4233C19.4324 23.4233 19.4715 23.3457 19.4715 23.3069C19.5497 22.4534 20.3708 22.0267 20.7227 21.3284C20.8791 21.018 21.1527 20.6689 20.6054 20.3973C20.84 20.3585 21.0355 20.3585 21.1918 20.3197C21.9738 20.0482 22.5603 19.505 22.9904 18.7679C23.1468 18.4575 23.4987 18.1084 23.7333 18.3024C24.007 18.5351 24.1634 18.4188 24.2807 18.3024C25.0236 17.7592 25.7665 17.2937 26.6266 16.9445C27.3695 16.6342 27.7605 15.8583 28.3079 15.2763C28.4643 15.3927 28.1906 15.8195 28.6207 15.6255C29.129 15.3927 29.7546 15.16 29.9892 14.6556C30.2238 14.0737 30.9276 14.3065 31.2013 13.8409C31.2013 13.8021 31.4358 13.8409 31.4358 13.8797C31.5531 14.1513 31.7095 13.9961 31.905 13.9961C32.8043 13.9573 33.1171 13.259 33.5081 12.6383C33.5472 12.1727 33.8991 11.94 34.1728 11.6684C34.251 11.6296 34.4074 11.5908 34.4856 11.6296C34.6029 11.6684 34.6029 11.8236 34.5638 11.94C34.3292 12.3279 33.8991 12.4443 33.5472 12.6771C33.5472 12.6771 33.5472 12.6771 33.5081 12.7159C33.5472 12.7935 33.3126 13.0262 33.7036 13.0262C34.0946 13.0262 34.2901 13.0262 34.4856 12.6771C34.6029 12.4831 34.8375 12.0564 34.9939 12.6771C35.0721 12.9486 35.2285 12.8323 35.3067 12.7159C35.5413 12.3279 35.815 11.8236 35.5804 11.4356C35.3067 11.0089 35.6195 10.9701 35.815 10.8925C36.1278 10.7761 36.5187 10.6985 36.7142 10.3882C36.5187 10.233 36.245 10.3882 36.0105 10.1554C36.5578 9.88382 36.636 9.37949 36.7533 8.87515C36.7924 8.75877 36.6751 8.37081 37.027 8.4872C37.3398 8.56479 37.1052 8.83636 37.0661 8.99154C36.9488 9.34069 36.8315 9.72864 37.1834 9.92262C37.4962 10.1166 37.6526 10.3494 37.6526 10.6985C38.3564 10.6209 38.4346 9.84503 38.9038 9.65105C39.8422 9.3019 40.0768 8.13804 41.0934 7.90527C41.1325 7.90527 41.1716 7.86648 41.2107 7.86648C41.4452 7.32335 41.4452 7.32335 41.9144 7.7113C42.1881 6.93539 42.4227 6.50865 43.5957 6.66383C43.7912 6.70262 43.8303 6.62503 43.8694 6.50865C44.104 6.04311 44.495 5.61636 44.6123 5.11202C44.7687 4.5301 45.0033 4.72407 45.3161 4.87925C45.4725 4.95684 45.4725 5.46118 45.7462 5.07323C45.9026 4.84046 45.9417 4.5301 45.7071 4.29733C45.6289 4.21974 45.5116 4.18094 45.4334 4.10335C45.3552 3.98696 45.1206 3.94817 45.2379 3.75419C45.3161 3.59901 45.4334 3.44383 45.668 3.48263C45.9026 3.52142 45.7853 3.7154 45.8244 3.87058C45.9026 4.33612 46.3326 4.37492 46.6063 4.37492C46.9191 4.37492 46.7236 3.98696 46.7627 3.75419C46.7627 3.44383 46.4499 3.13347 46.8409 2.9007C47.1146 3.05588 46.6454 3.52142 47.1537 3.59901C47.5838 3.63781 47.7011 3.32745 47.7793 2.97829C47.8184 2.82311 47.8966 2.66793 47.9748 2.51275C48.0139 2.47395 47.9748 2.20239 48.1312 2.43516C48.2485 2.59034 48.444 2.70673 48.5613 2.66793C48.7568 2.55154 48.6786 2.39636 48.4831 2.27998C48.3658 2.20239 48.5222 2.20239 48.5613 2.20239C48.9914 2.086 49.3042 1.65926 49.7343 1.62046C50.2817 1.58167 50.5945 1.15492 51.0637 0.999739C51.3374 0.728173 51.2982 0.611788 51.2982 0.495403ZM6.99883 78.59C6.80333 78.8228 6.56874 78.9392 6.21684 78.9392C6.49054 78.8616 6.52964 78.5124 6.72514 78.3572C6.80333 78.2796 6.84243 78.1633 6.99883 78.2796C7.07703 78.3572 7.11613 78.4736 6.99883 78.59ZM10.0095 77.0382C9.97037 77.077 9.85307 77.077 9.81397 77.0382C9.73578 76.7278 9.77487 76.3399 9.42298 76.1847C9.54028 75.9907 9.54028 75.7192 9.85307 75.564C9.89217 76.0295 9.93127 76.4175 10.0877 76.8054C10.1659 76.9218 10.0486 76.9994 10.0095 77.0382ZM17.4383 72.3052C17.2428 72.344 17.321 72.1888 17.321 72.1112C17.321 71.9948 17.321 71.8784 17.4774 71.9172C17.5556 71.9172 17.5947 72.0724 17.6729 72.15C17.6729 72.3052 17.5165 72.3052 17.4383 72.3052ZM28.3861 60.7055C28.1906 60.9382 28.0733 60.4339 27.8778 60.2787C28.3079 60.0459 28.7771 60.0459 29.3636 60.1235C28.9726 60.3951 28.6598 60.4339 28.3861 60.7055ZM29.911 59.1536C29.4418 59.3864 29.4418 59.3864 29.2072 59.8132C28.738 59.4252 28.9335 59.1148 29.3636 58.9597C29.8719 58.7657 29.911 58.3777 29.8719 57.951C29.7937 57.4467 29.9501 56.9811 30.4193 56.632C29.9501 57.0587 30.5366 57.4079 30.5757 57.7958C30.6148 58.1838 30.302 58.9597 29.911 59.1536ZM31.0058 57.7958C30.8494 57.5242 31.1231 57.5242 31.3185 57.4855C31.2403 57.6018 31.1231 57.6794 31.0058 57.7958ZM30.2629 32.579C30.302 32.5014 30.302 32.385 30.3411 32.2298C30.6539 32.3462 30.9276 32.4238 31.2013 32.579C30.9667 32.6954 30.8103 32.8118 30.6539 32.8893C30.4975 32.9669 30.4193 33.3161 30.1847 33.1221C30.0674 33.0057 30.1456 32.773 30.2629 32.579ZM29.5591 32.1134C29.7546 32.191 29.911 32.3074 29.8328 32.4626C29.7155 32.6954 29.7546 32.8893 29.7155 33.1221C29.4027 33.0445 29.2854 32.773 29.2072 32.5014C29.1681 32.3462 29.4418 32.2298 29.5591 32.1134ZM29.5591 33.3937C28.8944 33.7816 28.4643 33.5489 28.0342 33.2773C28.2688 33.1609 28.5034 33.2385 28.8162 33.3161C28.6207 32.9281 28.2297 32.6954 27.956 32.8893C27.4868 33.2385 27.6432 32.773 27.4086 32.6178C27.9951 32.5402 28.3861 32.8117 28.7771 32.8117C29.3636 32.773 28.9726 33.4325 29.5591 33.3937ZM28.8944 32.3074C28.8944 32.385 28.8944 32.4238 28.8553 32.5014C28.6207 32.4626 28.3861 32.385 27.9951 32.3074C28.4252 32.2686 28.6598 32.191 28.8944 32.3074ZM27.8778 31.9583C28.0342 32.1522 27.7996 32.0746 27.7214 32.1134C27.6432 32.1134 27.6041 32.1134 27.3695 32.0746C27.6432 32.0358 27.7214 31.8031 27.8778 31.9583ZM25.6101 32.5402C25.4537 32.5402 25.3364 32.4626 25.2973 32.3462C25.2973 32.2686 25.3755 32.1522 25.5319 32.1522C25.6492 32.191 25.7274 32.2686 25.7665 32.385C25.8056 32.5014 25.7274 32.5014 25.6101 32.5402ZM25.9229 31.9195C25.962 31.9195 25.962 31.9195 26.0011 31.9195C26.0011 31.9195 25.962 31.9195 25.9229 31.9195C25.7274 31.9195 25.3364 31.6479 25.1409 32.2298C25.1409 30.9108 25.7274 31.8031 25.9229 31.9195ZM24.9063 28.8546C25.0627 28.8546 25.1409 28.9322 25.1409 29.0874C25.1409 29.2814 25.0627 29.4754 24.8672 29.4366C24.7499 29.4366 24.5544 29.2814 24.5544 29.165C24.5153 28.9322 24.7499 28.9322 24.9063 28.8546ZM19.5497 14.8496C19.4715 14.8496 19.3151 14.8496 19.3542 14.7332C19.4324 14.5392 19.5497 14.3841 19.7061 14.2289C19.7061 14.2289 19.8625 14.3065 19.9407 14.3453C19.7843 14.578 19.8234 14.8496 19.5497 14.8496ZM22.834 12.9098C22.6776 12.9486 22.5994 12.871 22.7167 12.7159C22.7558 12.6771 22.7949 12.5995 22.9122 12.4055C22.834 12.6771 22.8731 12.871 22.834 12.9098ZM43.5957 5.88793C43.5175 5.92672 43.4002 5.88793 43.2829 5.84913C43.322 5.69395 43.3611 5.49997 43.5957 5.38359C43.5175 5.57756 43.8303 5.73275 43.5957 5.88793Z" fill="white"/>
<path d="M53.3313 39.1353H54.9735V49.3385C55.5209 48.2522 56.7329 46.8556 59.0007 46.8556C63.067 46.8556 63.1452 50.8127 63.1452 51.6274V59.2312H61.503V51.8601C61.503 50.4247 61.3466 48.1746 58.8052 48.1746C56.5765 48.1746 54.9735 50.2695 54.9735 53.024V59.2312H53.3313V39.1353Z" fill="white"/>
<path d="M66.8597 47.3987L71.3561 57.4466L75.1878 47.3987H76.8691L69.7921 65.0117H67.9936L70.4568 59.1536L64.9438 47.3987H66.8597Z" fill="white"/>
<path d="M84.3761 46.8944C86.2919 46.8944 87.3867 48.097 87.6995 49.3773C88.9898 47.0108 90.9447 46.8944 91.8831 46.8944C95.5193 46.8944 95.5584 50.5023 95.5584 51.4334V59.27H93.9163V51.4334C93.9163 50.3859 93.7599 48.2134 91.5312 48.2134C89.6154 48.2134 87.9341 49.9592 87.9341 52.9076V59.27H86.2919V51.511C86.2919 50.2308 86.0573 48.2134 83.9851 48.2134C81.8346 48.2134 80.3488 50.5799 80.3488 52.9076V59.27H78.7067V47.3987H80.3488V49.4548C81.6 47.2047 83.164 46.8944 84.3761 46.8944Z" fill="white"/>
<path d="M100.72 39.1353V49.2997C102.01 47.1271 104.043 46.8944 105.06 46.8944C108.735 46.8944 111.237 49.4936 111.237 53.3344C111.237 56.9423 108.891 59.7744 105.099 59.7744C102.987 59.7744 101.423 58.6881 100.563 57.2527V59.27H99.0383V39.1741H100.72V39.1353ZM109.478 53.3344C109.478 50.9679 108.227 48.2134 104.903 48.2134C102.323 48.2134 100.602 50.5411 100.602 53.3344C100.602 56.6707 102.792 58.4553 105.138 58.4553C107.875 58.4553 109.478 56.2052 109.478 53.3344Z" fill="white"/>
<path d="M123.984 47.3987V54.4206C123.984 55.5069 123.866 59.7744 118.979 59.7744C114.092 59.7744 113.974 55.4681 113.974 54.4206V47.3987H115.616V54.6146C115.616 56.0888 116.046 58.4553 118.94 58.4553C121.872 58.4553 122.263 56.0888 122.263 54.6146V47.3987H123.984Z" fill="white"/>
<path d="M127.503 39.1353H129.145V59.2312H127.503V39.1353Z" fill="white"/>
<path d="M142.556 47.3987H144.081V59.27H142.556V57.2527C141.578 58.9597 139.858 59.7744 138.138 59.7744C134.345 59.7744 131.921 56.9423 131.921 53.3344C131.921 49.6488 134.462 46.8944 138.177 46.8944C139.545 46.8944 141.383 47.3211 142.556 49.4936V47.3987ZM142.556 53.3344C142.556 50.5411 140.835 48.2134 138.216 48.2134C135.596 48.2134 133.68 50.3859 133.68 53.3344C133.68 56.0888 135.401 58.4553 138.138 58.4553C140.679 58.4553 142.556 56.438 142.556 53.3344Z" fill="white"/>
<path d="M147.639 39.1353H149.281V52.1705L154.637 47.3599H156.905L151.04 52.4809L158 59.2312H155.615L149.867 53.5283L149.32 53.9939V59.27H147.678V39.1353H147.639Z" fill="white"/>
<path d="M78.2375 69.7835L75.9697 64.5849L75.0704 69.4731H74.2103L75.696 61.9857L78.2375 67.9601L80.7789 61.9857L82.2647 69.4731H81.4045L80.4661 64.5849L78.2375 69.7835Z" fill="white"/>
<path d="M90.2019 65.904C90.2019 66.4083 90.1237 66.9126 89.9282 67.3782C89.7327 67.8437 89.459 68.2317 89.1071 68.5808C88.7552 68.93 88.3251 69.2016 87.856 69.3955C87.3868 69.5895 86.8785 69.6671 86.3702 69.6671C85.8619 69.6671 85.3536 69.5895 84.8844 69.3955C84.4152 69.2016 83.9851 68.93 83.6332 68.5808C83.2813 68.2317 82.9685 67.8049 82.7731 67.3782C82.5776 66.9126 82.4994 66.4471 82.4994 65.9428C82.4994 65.4384 82.5776 64.9341 82.7731 64.4686C82.9685 64.003 83.2422 63.6151 83.6332 63.2271C83.9851 62.878 84.4152 62.6064 84.8844 62.4124C85.3536 62.2184 85.8619 62.1408 86.3702 62.1408C86.8785 62.1408 87.3868 62.2184 87.856 62.4124C88.3251 62.6064 88.7552 62.878 89.1071 63.2271C89.459 63.5763 89.7718 64.003 89.9282 64.4298C90.1237 64.8953 90.2019 65.3996 90.2019 65.904ZM86.3311 68.8912C86.7221 68.8912 87.1131 68.8136 87.465 68.6584C87.8169 68.5033 88.1296 68.3093 88.4424 67.9989C88.7161 67.7274 88.9507 67.3782 89.1071 67.029C89.2635 66.6799 89.3417 66.2919 89.3417 65.904C89.3417 65.516 89.2635 65.1281 89.1071 64.7401C88.9507 64.391 88.7552 64.0418 88.4424 63.7702C88.1687 63.4987 87.8169 63.2659 87.465 63.1107C87.1131 62.9555 86.7221 62.878 86.3311 62.878C85.9401 62.878 85.5491 62.9555 85.1972 63.1107C84.8453 63.2659 84.5325 63.4599 84.2197 63.7702C83.946 64.0418 83.7114 64.391 83.555 64.7401C83.3986 65.0893 83.3204 65.4772 83.3204 65.904C83.3204 66.2919 83.3986 66.6799 83.555 67.029C83.7114 67.3782 83.9069 67.6886 84.2197 67.9989C84.4934 68.2705 84.8453 68.5033 85.1972 68.6584C85.5491 68.8136 85.9401 68.8912 86.3311 68.8912Z" fill="white"/>
<path d="M91.0229 62.296H91.8831V66.7963C91.8831 67.5334 92.0395 68.0765 92.3523 68.3869C92.6651 68.736 93.1734 68.8912 93.8381 68.8912C94.5028 68.8912 95.011 68.736 95.3238 68.3869C95.6366 68.0377 95.793 67.4946 95.793 66.7963V62.296H96.6532V66.7963C96.6532 67.7661 96.4186 68.5033 95.9494 68.9688C95.4802 69.4343 94.7764 69.7059 93.8381 69.7059C92.8997 69.7059 92.1959 69.4731 91.7267 68.9688C91.2575 68.5033 91.0229 67.7661 91.0229 66.7963V62.296Z" fill="white"/>
<path d="M97.787 62.0245L103.105 67.805V62.3348H103.926V69.8223L98.6081 64.1194V69.5507H97.787V62.0245Z" fill="white"/>
<path d="M106.35 69.5119V63.1107H104.278V62.296H109.243V63.1107H107.21V69.5119H106.35Z" fill="white"/>
<path d="M111.237 62.0245L114.561 69.5119H113.622L112.684 67.3006H109.83L108.891 69.5119H107.914L111.237 62.0245ZM111.237 63.8866L110.064 66.5247H112.371L111.237 63.8866Z" fill="white"/>
<path d="M114.717 69.5119V62.296H115.577V69.5119H114.717Z" fill="white"/>
<path d="M116.75 62.0245L122.068 67.805V62.3348H122.889V69.8223L117.571 64.1194V69.5507H116.75V62.0245Z" fill="white"/>
<path d="M126.447 69.5119V62.296H128.167C128.636 62.296 129.027 62.3348 129.223 62.3736C129.457 62.4124 129.653 62.5288 129.809 62.6452C130.005 62.8004 130.2 63.0331 130.318 63.3047C130.435 63.5763 130.513 63.8866 130.513 64.2358C130.513 64.8177 130.357 65.2833 130.005 65.5936C129.653 65.904 129.184 66.0592 128.558 66.0592H128.402L131.178 69.5119H130.083L127.424 66.0592H127.307V69.5119H126.447ZM127.307 63.0331V65.4384H127.972C128.636 65.4384 129.106 65.3608 129.34 65.1669C129.575 65.0117 129.692 64.7013 129.692 64.2746C129.692 63.809 129.575 63.4987 129.34 63.3047C129.106 63.1107 128.675 63.0331 128.011 63.0331H127.307Z" fill="white"/>
<path d="M131.334 69.5119V62.296H135.166V63.0719H132.194V65.1281H135.166V65.9428H132.194V68.6972H135.166V69.5119H131.334Z" fill="white"/>
<path d="M138.685 65.516C139.154 65.71 139.506 65.9816 139.741 66.3307C139.975 66.6799 140.092 67.0678 140.092 67.4946C140.092 68.1541 139.897 68.6972 139.467 69.0852C139.037 69.4731 138.489 69.7059 137.786 69.7059C137.199 69.7059 136.73 69.5507 136.339 69.2792C135.948 69.0076 135.674 68.5808 135.557 68.0377L136.339 67.6498C136.456 68.0765 136.613 68.4257 136.847 68.6584C137.082 68.8912 137.395 69.0076 137.746 69.0076C138.177 69.0076 138.528 68.8912 138.802 68.6196C139.076 68.3869 139.193 68.0377 139.193 67.6498C139.193 67.3394 139.115 67.029 138.919 66.7963C138.724 66.5635 138.45 66.3695 138.059 66.1755L137.16 65.7876C136.691 65.5936 136.3 65.3221 136.065 65.0117C135.831 64.7013 135.713 64.3134 135.713 63.8866C135.713 63.3823 135.909 62.9555 136.3 62.6064C136.691 62.2572 137.16 62.1021 137.786 62.1021C138.216 62.1021 138.607 62.1796 138.919 62.3736C139.232 62.5676 139.506 62.8392 139.662 63.1883L138.959 63.6539C138.802 63.3823 138.607 63.1495 138.411 63.0331C138.216 62.878 137.981 62.8392 137.707 62.8392C137.395 62.8392 137.121 62.9555 136.925 63.1495C136.73 63.3435 136.613 63.6151 136.613 63.8866C136.613 64.1582 136.691 64.3522 136.847 64.5461C137.004 64.7401 137.238 64.8953 137.59 65.0505L138.685 65.516Z" fill="white"/>
<path d="M148.147 65.904C148.147 66.4083 148.069 66.9126 147.873 67.3782C147.678 67.8437 147.404 68.2317 147.052 68.5808C146.7 68.93 146.27 69.2016 145.801 69.3955C145.332 69.5895 144.823 69.6671 144.315 69.6671C143.807 69.6671 143.299 69.5895 142.829 69.3955C142.36 69.2016 141.93 68.93 141.578 68.5808C141.226 68.2317 140.914 67.8049 140.718 67.3782C140.523 66.9126 140.444 66.4471 140.444 65.9428C140.444 65.4384 140.523 64.9341 140.718 64.4686C140.914 64.003 141.187 63.6151 141.578 63.2271C141.93 62.878 142.36 62.6064 142.829 62.4124C143.299 62.2184 143.807 62.1408 144.315 62.1408C144.823 62.1408 145.332 62.2184 145.801 62.4124C146.27 62.6064 146.7 62.878 147.052 63.2271C147.404 63.5763 147.717 64.003 147.873 64.4298C148.03 64.8953 148.147 65.3996 148.147 65.904ZM144.237 68.8912C144.628 68.8912 145.019 68.8136 145.371 68.6584C145.723 68.5033 146.035 68.3093 146.348 67.9989C146.622 67.7274 146.857 67.3782 147.013 67.029C147.169 66.6799 147.248 66.2919 147.248 65.904C147.248 65.516 147.169 65.1281 147.013 64.7401C146.857 64.391 146.661 64.0418 146.348 63.7702C146.075 63.4987 145.723 63.2659 145.371 63.1107C145.019 62.9555 144.628 62.878 144.237 62.878C143.846 62.878 143.455 62.9555 143.103 63.1107C142.751 63.2659 142.438 63.4599 142.126 63.7702C141.852 64.0418 141.617 64.391 141.461 64.7401C141.304 65.0893 141.226 65.4772 141.226 65.904C141.226 66.2919 141.304 66.6799 141.461 67.029C141.617 67.3782 141.813 67.6886 142.126 67.9989C142.399 68.2705 142.751 68.5033 143.103 68.6584C143.455 68.8136 143.846 68.8912 144.237 68.8912Z" fill="white"/>
<path d="M148.968 69.5119V62.296H150.688C151.158 62.296 151.549 62.3348 151.744 62.3736C151.979 62.4124 152.174 62.5288 152.331 62.6452C152.526 62.8004 152.722 63.0331 152.839 63.3047C152.956 63.5763 153.034 63.8866 153.034 64.2358C153.034 64.8177 152.878 65.2833 152.526 65.5936C152.174 65.904 151.705 66.0592 151.079 66.0592H150.923L153.699 69.5119H152.604L149.946 66.0592H149.828V69.5119H148.968ZM149.789 63.0331V65.4384H150.454C151.118 65.4384 151.588 65.3608 151.822 65.1669C152.057 65.0117 152.174 64.7013 152.174 64.2746C152.174 63.809 152.057 63.4987 151.822 63.3047C151.588 63.1107 151.158 63.0331 150.493 63.0331H149.789Z" fill="white"/>
<path d="M155.107 69.5119V63.1107H153.034V62.296H158V63.1107H155.967V69.5119H155.107Z" fill="white"/>
</svg>
