<svg width="32" height="32" viewBox="0 0 32 32" fill="none" xmlns="http://www.w3.org/2000/svg">
<path d="M16 29.7143C23.5742 29.7143 29.7143 23.5742 29.7143 16C29.7143 8.4258 23.5742 2.28571 16 2.28571C8.4258 2.28571 2.28571 8.4258 2.28571 16C2.28571 23.5742 8.4258 29.7143 16 29.7143Z" fill="#212225"/>
<path d="M15.9999 28.8636C23.1043 28.8636 28.8635 23.1044 28.8635 16C28.8635 8.89569 23.1043 3.13647 15.9999 3.13647C8.89557 3.13647 3.13635 8.89569 3.13635 16C3.13635 23.1044 8.89557 28.8636 15.9999 28.8636Z" fill="#212225"/>
<path d="M16.0001 27.1643C22.1659 27.1643 27.1644 22.1659 27.1644 16C27.1644 9.83418 22.1659 4.83575 16.0001 4.83575C9.83421 4.83575 4.83578 9.83418 4.83578 16C4.83578 22.1659 9.83421 27.1643 16.0001 27.1643Z" fill="#406A80"/>
<path d="M16.0004 26.9496C9.96264 26.9496 5.05078 22.0375 5.05078 16C5.05078 9.96252 9.96264 5.05066 16.0004 5.05066C22.0381 5.05066 26.9499 9.96252 26.9499 16C26.9499 22.0375 22.0381 26.9496 16.0004 26.9496Z" fill="#47748C"/>
<path d="M16.0004 26.7353C10.0809 26.7353 5.26508 21.9192 5.26508 16C5.26508 10.0808 10.0809 5.26495 16.0004 5.26495C21.9198 5.26495 26.7356 10.0808 26.7356 16C26.7356 21.9192 21.9198 26.7353 16.0004 26.7353Z" fill="#3A5F73"/>
<path d="M16.0003 26.3067C10.3173 26.3067 5.69363 21.6833 5.69363 16C5.69363 10.3169 10.3171 5.69348 16.0003 5.69348C21.6836 5.69348 26.3071 10.3169 26.3071 16C26.3071 21.6831 21.6834 26.3067 16.0003 26.3067Z" fill="#406A80"/>
<path d="M16.0004 26.0924C10.4351 26.0924 5.90793 21.5648 5.90793 16C5.90793 10.4352 10.4351 5.90778 16.0004 5.90778C21.5656 5.90778 26.0928 10.4352 26.0928 16C26.0928 21.5648 21.5656 26.0924 16.0004 26.0924Z" fill="#47748C"/>
<path d="M16.0004 25.4496C10.7902 25.4496 6.55078 21.2104 6.55078 16C6.55078 10.7897 10.7896 6.55066 16.0004 6.55066C21.2111 6.55066 25.4499 10.7897 25.4499 16C25.4499 21.2102 21.2105 25.4496 16.0004 25.4496Z" fill="#3A5F73"/>
<path d="M15.9996 23.345C11.9496 23.345 8.65454 20.0499 8.65454 15.9999C8.65454 11.9497 11.9496 8.65466 15.9996 8.65466C20.0496 8.65466 23.3447 11.9497 23.3447 15.9999C23.3447 20.0499 20.0496 23.345 15.9996 23.345Z" fill="#1E2C33"/>
<path d="M15.9999 23.1314C19.9385 23.1314 23.1313 19.9386 23.1313 16C23.1313 12.0614 19.9385 8.86859 15.9999 8.86859C12.0613 8.86859 8.86847 12.0614 8.86847 16C8.86847 19.9386 12.0613 23.1314 15.9999 23.1314Z" fill="#263740"/>
<path d="M15.9996 22.9165C12.1858 22.9165 9.08313 19.8138 9.08313 16C9.08313 12.1861 12.1858 9.08325 15.9996 9.08325C19.8135 9.08325 22.9161 12.1861 22.9161 16C22.9161 19.8138 19.8135 22.9165 15.9996 22.9165Z" fill="#2D424D"/>
<path d="M15.9996 22.4879C12.4221 22.4879 9.51169 19.5775 9.51169 16C9.51169 12.4225 12.4221 9.51184 15.9996 9.51184C19.5771 9.51184 22.4875 12.4225 22.4875 16C22.4875 19.5775 19.5771 22.4879 15.9996 22.4879Z" fill="#253740"/>
<path d="M16.0005 21.231C18.8894 21.231 21.2314 18.889 21.2314 16C21.2314 13.1111 18.8894 10.7691 16.0005 10.7691C13.1115 10.7691 10.7695 13.1111 10.7695 16C10.7695 18.889 13.1115 21.231 16.0005 21.231Z" fill="#212225"/>
<path d="M16.0005 21.0167C13.2343 21.0167 10.9838 18.7663 10.9838 16C10.9838 13.2338 13.2343 10.9834 16.0005 10.9834C18.7667 10.9834 21.0171 13.2338 21.0171 16C21.0171 18.7663 18.7667 21.0167 16.0005 21.0167Z" fill="#212225"/>
<path d="M16.0005 20.8023C13.3525 20.8023 11.1981 18.6479 11.1981 16C11.1981 13.3521 13.3525 11.1976 16.0005 11.1976C18.6484 11.1976 20.8028 13.3521 20.8028 16C20.8028 18.6479 18.6484 20.8023 16.0005 20.8023Z" fill="#212225"/>
<path d="M16.0005 20.1595C13.707 20.1595 11.841 18.2935 11.841 16C11.841 13.7065 13.707 11.8405 16.0005 11.8405C18.294 11.8405 20.16 13.7065 20.16 16C20.16 18.2935 18.294 20.1595 16.0005 20.1595Z" fill="#4D4D4D"/>
<path d="M16.0005 19.731C13.9429 19.731 12.2695 18.057 12.2695 16C12.2695 13.9429 13.9435 12.2691 16.0005 12.2691C18.0574 12.2691 19.7314 13.9429 19.7314 16C19.7314 18.0572 18.058 19.731 16.0005 19.731Z" fill="#212225"/>
<path d="M15.9999 18.501C17.3813 18.501 18.5011 17.3812 18.5011 15.9999C18.5011 14.6185 17.3813 13.4987 15.9999 13.4987C14.6186 13.4987 13.4988 14.6185 13.4988 15.9999C13.4988 17.3812 14.6186 18.501 15.9999 18.501Z" fill="#212225"/>
<path d="M16.0002 17.8845C17.0411 17.8845 17.8849 17.0407 17.8849 15.9999C17.8849 14.959 17.0411 14.1152 16.0002 14.1152C14.9594 14.1152 14.1156 14.959 14.1156 15.9999C14.1156 17.0407 14.9594 17.8845 16.0002 17.8845Z" fill="#134D44"/>
<path d="M16.0001 16.8707C16.4809 16.8707 16.8707 16.4809 16.8707 16.0001C16.8707 15.5193 16.4809 15.1295 16.0001 15.1295C15.5193 15.1295 15.1295 15.5193 15.1295 16.0001C15.1295 16.4809 15.5193 16.8707 16.0001 16.8707Z" fill="#198058"/>
<path d="M15.1295 16C15.1295 16.4809 15.5195 16.8706 16.0003 16.8706V16H15.1295Z" fill="#70CCBD"/>
<path d="M16.8709 16.0001C16.8709 15.5192 16.4809 15.1295 16 15.1295V16.0001H16.8709Z" fill="#70CCBD"/>
<ellipse cx="26.2857" cy="5.71428" rx="3.42857" ry="3.42857" fill="url(#paint0_linear_564_2219)"/>
<defs>
<linearGradient id="paint0_linear_564_2219" x1="23.3029" y1="2.65305" x2="30.1535" y2="3.261" gradientUnits="userSpaceOnUse">
<stop stop-color="#FE7757"/>
<stop offset="1" stop-color="#FC3143"/>
</linearGradient>
</defs>
</svg>
