<svg width="56" height="56" viewBox="0 0 56 56" fill="none" xmlns="http://www.w3.org/2000/svg">
<path d="M14 18C14 17.4477 14.4477 17 15 17H41C41.5523 17 42 17.4477 42 18C42 18.5523 41.5523 19 41 19H15C14.4477 19 14 18.5523 14 18Z" fill="#4F5864"/>
<path d="M14 28C14 27.4477 14.4477 27 15 27H41C41.5523 27 42 27.4477 42 28C42 28.5523 41.5523 29 41 29H15C14.4477 29 14 28.5523 14 28Z" fill="#4F5864"/>
<path d="M14 38C14 37.4477 14.4477 37 15 37H41C41.5523 37 42 37.4477 42 38C42 38.5523 41.5523 39 41 39H15C14.4477 39 14 38.5523 14 38Z" fill="#4F5864"/>
<rect x="0.5" y="0.5" width="55" height="55" rx="15.5" stroke="#DAE9F4"/>
</svg>
