<svg width="23" height="23" viewBox="0 0 23 23" fill="none" xmlns="http://www.w3.org/2000/svg">
<path d="M11.0504 22.8013C10.815 22.7715 10.5777 22.7504 10.3443 22.7052C6.9849 22.1286 4.72217 20.2595 3.61375 17.0882C3.00242 15.3382 3.1782 13.6084 3.8911 11.9046C4.59065 10.2491 5.43841 8.65815 6.42435 7.15049C7.85113 4.95268 9.32966 2.78755 10.7916 0.615687C11.1559 0.0746442 11.8238 0.0535042 12.1852 0.590703C14.1745 3.54001 16.2868 6.41436 17.987 9.54337C18.6081 10.6841 19.1589 11.8555 19.5183 13.1058C19.7909 14.0506 19.8324 15.0454 19.6394 16.009C19.0818 18.892 17.4138 20.9264 14.7165 22.143C13.8981 22.5076 13.0178 22.7188 12.1207 22.7658C12.0624 22.7735 12.0046 22.7851 11.9479 22.8004L11.0504 22.8013ZM11.4986 2.43967C11.4606 2.48868 11.4322 2.52039 11.4088 2.55499C10.2213 4.32803 9.01228 6.08666 7.85406 7.87796C6.94877 9.27237 6.11868 10.71 5.47414 12.2428C5.00245 13.3653 4.71533 14.506 4.93995 15.7409C5.19972 17.1622 5.81887 18.3903 6.88236 19.3811C7.92184 20.3511 9.24894 20.969 10.6702 21.1448C12.0916 21.3206 13.5328 21.0451 14.7838 20.3585C16.28 19.5234 17.278 18.276 17.8112 16.6778C18.1784 15.5736 18.2634 14.4522 17.9089 13.3143C17.4587 11.8949 16.7634 10.5899 16.0143 9.30985C14.6559 6.99096 13.112 4.78835 11.6012 2.56652C11.569 2.53096 11.5387 2.49348 11.4947 2.43967H11.4986Z" fill="white"/>
</svg>
