<svg width="23" height="23" viewBox="0 0 23 23" fill="none" xmlns="http://www.w3.org/2000/svg">
<g clip-path="url(#clip0_1_14829)">
<path d="M22.925 7.96613C22.925 10.3687 20.9702 12.3234 18.5677 12.3234H4.49219C4.0374 12.3234 3.66875 11.9548 3.66875 11.5C3.66875 11.0452 4.0374 10.6766 4.49219 10.6766H18.5677C20.0623 10.6766 21.2781 9.46073 21.2781 7.96613C21.2781 6.47153 20.0623 5.2557 18.5677 5.2557C17.0731 5.2557 15.8573 6.47153 15.8573 7.96613C15.8573 8.42092 15.4886 8.78957 15.0338 8.78957C14.579 8.78957 14.2104 8.42092 14.2104 7.96613C14.2104 5.56358 16.1651 3.60882 18.5677 3.60882C20.9702 3.60887 22.925 5.56358 22.925 7.96613ZM8.53516 8.78957H0.898438C0.443647 8.78957 0.075 8.42096 0.075 7.96618C0.075 7.51139 0.443652 7.14274 0.898438 7.14274H8.53516C10.0298 7.14274 11.2456 5.92691 11.2456 4.43231C11.2456 2.93771 10.0298 1.72187 8.53516 1.72187C7.04056 1.72187 5.82472 2.93771 5.82472 4.43231C5.82472 4.88709 5.45607 5.25574 5.00129 5.25574C4.5465 5.25574 4.17785 4.88709 4.17785 4.43231C4.17785 2.02975 6.1326 0.075 8.53516 0.075C10.9377 0.075 12.8925 2.02975 12.8925 4.43226C12.8925 6.83482 10.9377 8.78957 8.53516 8.78957ZM0.898438 14.2104H15.0339C17.4364 14.2104 19.3911 16.1651 19.3912 18.5677C19.3912 20.9702 17.4364 22.925 15.0339 22.925C12.6313 22.925 10.6766 20.9702 10.6766 18.5677C10.6766 18.1129 11.0452 17.7443 11.5 17.7443C11.9548 17.7443 12.3234 18.1129 12.3234 18.5677C12.3234 20.0623 13.5393 21.2781 15.0339 21.2782C16.5285 21.2782 17.7443 20.0623 17.7443 18.5677C17.7443 17.0731 16.5285 15.8573 15.0339 15.8573H0.898438C0.443652 15.8573 0.075 15.4887 0.075 15.0339C0.075 14.5791 0.443652 14.2104 0.898438 14.2104Z" fill="white" stroke="white" stroke-width="0.15"/>
</g>
<defs>
<clipPath id="clip0_1_14829">
<rect width="23" height="23" fill="white"/>
</clipPath>
</defs>
</svg>
